<svg width="70" height="70" viewBox="0 0 70 70" fill="none" xmlns="http://www.w3.org/2000/svg">
<g clip-path="url(#clip0)">
<path d="M69.0875 68.1127L2.47523 1.50042C2.15927 1.18446 1.68349 1.08985 1.27074 1.26089C0.857714 1.43179 0.588379 1.83511 0.588379 2.28204V68.8943C0.588379 69.5049 1.0833 69.9997 1.69361 69.9997H10.536H19.3784H28.2208H37.0632H45.9055H54.7479H68.3061C68.7532 69.9997 69.1561 69.7305 69.3273 69.3173C69.4982 68.9042 69.4036 68.4289 69.0875 68.1127ZM55.853 67.7891V67.7889V64.1784C55.853 63.5678 55.3581 63.0731 54.7478 63.0731C54.1373 63.0731 53.6426 63.5679 53.6426 64.1784V67.7889H47.0106V64.1784C47.0106 63.5678 46.5157 63.0731 45.9054 63.0731C45.295 63.0731 44.8002 63.5679 44.8002 64.1784V67.7889H38.1684V64.1784C38.1684 63.5678 37.6735 63.0731 37.0632 63.0731C36.4527 63.0731 35.9579 63.5679 35.9579 64.1784V67.7889H29.3261V64.1784C29.3261 63.5678 28.8312 63.0731 28.2209 63.0731C27.6106 63.0731 27.1157 63.5679 27.1157 64.1784V67.7889H20.4839V64.1784C20.4839 63.5678 19.989 63.0731 19.3787 63.0731C18.7683 63.0731 18.2734 63.5679 18.2734 64.1784V67.7889H11.6414V64.1784C11.6414 63.5678 11.1464 63.0731 10.5361 63.0731C9.92582 63.0731 9.4309 63.5679 9.4309 64.1784V67.7889H2.79898V4.95037L65.6375 67.7889H55.853V67.7891Z" fill="black"/>
<path d="M47.8645 59.2695L11.3161 22.8468C10.9999 22.5316 10.5245 22.4376 10.1121 22.6089C9.69959 22.7802 9.43066 23.1832 9.43066 23.6298V60.0525C9.43066 60.6631 9.92558 61.1577 10.5359 61.1577H47.0842C47.5317 61.1577 47.9349 60.888 48.1058 60.4745C48.2767 60.0611 48.1814 59.5853 47.8645 59.2695ZM11.6413 58.9471V26.2917L44.4093 58.9471H11.6413Z" fill="black"/>
<path d="M24.8758 29.7961L8.37008 13.2904C7.93846 12.8589 7.2386 12.8589 6.80711 13.2904C6.37549 13.7222 6.37549 14.4219 6.80711 14.8536L23.3128 31.3594C23.5286 31.5751 23.8116 31.683 24.0943 31.683C24.377 31.683 24.6601 31.5751 24.8758 31.3594C25.3074 30.9275 25.3074 30.2277 24.8758 29.7961Z" fill="black"/>
<path d="M30.7707 36.2809L27.8232 33.3334C27.3916 32.9019 26.6917 32.9019 26.2602 33.3334C25.8286 33.7651 25.8286 34.4649 26.2602 34.8966L29.2077 37.8441C29.4235 38.0599 29.7065 38.1677 29.9892 38.1677C30.272 38.1677 30.555 38.0599 30.7707 37.8441C31.2023 37.4122 31.2023 36.7125 30.7707 36.2809Z" fill="black"/>
<path d="M69.0877 37.6773L60.7507 29.341L35.2436 3.83394C35.2431 3.83339 35.2423 3.83271 35.2417 3.83203L35.2386 3.82888C35.2334 3.82369 35.2278 3.81959 35.2227 3.81453C35.2018 3.79443 35.1806 3.77461 35.1582 3.75615C35.1483 3.74795 35.1377 3.74084 35.1276 3.73304C35.109 3.71896 35.0905 3.70461 35.071 3.69148C35.0573 3.68232 35.0429 3.67439 35.029 3.66578C35.0123 3.65566 34.9958 3.64513 34.9784 3.63584C34.9612 3.62654 34.9435 3.61875 34.9259 3.61068C34.9109 3.60357 34.8962 3.59605 34.8808 3.58976C34.8595 3.58088 34.8376 3.57349 34.8158 3.56625C34.8033 3.56201 34.7912 3.55709 34.7785 3.55312C34.7517 3.54506 34.7244 3.53849 34.697 3.53248C34.6891 3.5307 34.6816 3.52824 34.6735 3.5266L34.6686 3.52551C34.6682 3.52537 34.6678 3.52537 34.6672 3.52523L20.0988 0.611766C20.0581 0.603016 20.0168 0.596591 19.9748 0.592626C19.9689 0.592079 19.9632 0.592079 19.9574 0.591532C19.948 0.590849 19.9384 0.590712 19.929 0.590028C19.9088 0.588934 19.8888 0.587157 19.8684 0.587431C19.8549 0.587431 19.8415 0.588524 19.828 0.588934C19.817 0.589345 19.8061 0.590028 19.7953 0.590712C19.7896 0.591122 19.7838 0.591122 19.7782 0.591532C19.7729 0.591942 19.7675 0.591806 19.7622 0.592352C19.7395 0.59454 19.7172 0.598231 19.6948 0.601786C19.6867 0.603153 19.6784 0.60411 19.6703 0.605614C19.586 0.620927 19.5044 0.645672 19.427 0.679442C19.4206 0.682176 19.4141 0.685594 19.4077 0.688602C19.3854 0.698719 19.3631 0.708973 19.3417 0.720594C19.3325 0.725653 19.324 0.731395 19.315 0.736453C19.3057 0.741785 19.2966 0.747528 19.2874 0.753133C19.2752 0.760653 19.2625 0.767762 19.2506 0.775828C19.2376 0.784578 19.2256 0.794285 19.213 0.803582C19.2104 0.805496 19.2078 0.80741 19.2054 0.809324C19.1981 0.814793 19.1906 0.819852 19.1835 0.82532C19.1772 0.830379 19.1706 0.834891 19.1646 0.840086C19.1542 0.848426 19.1451 0.857723 19.135 0.866609C19.118 0.881648 19.1008 0.896687 19.0846 0.912683C19.0781 0.919246 19.0721 0.926492 19.0658 0.933191C19.0474 0.952468 19.0294 0.972156 19.0124 0.992663C19.009 0.996765 19.0063 1.00128 19.0029 1.00538C19.0027 1.00551 19.0027 1.00565 19.0026 1.00579C18.9967 1.01331 18.9911 1.02096 18.9854 1.02862C18.9728 1.04516 18.9604 1.06143 18.9487 1.07893C18.9474 1.08085 18.9464 1.0829 18.945 1.08495C18.9394 1.0937 18.9344 1.10286 18.9289 1.11147C18.9234 1.12036 18.918 1.12897 18.9129 1.13786C18.9068 1.14866 18.9001 1.15905 18.8942 1.17012C18.8924 1.1734 18.891 1.17682 18.8895 1.17997C18.8808 1.19665 18.8727 1.21387 18.8649 1.2311C18.8618 1.2378 18.8582 1.24422 18.8554 1.25079C18.8533 1.25571 18.8508 1.26036 18.8487 1.26528C18.834 1.29987 18.8216 1.33528 18.8105 1.37137C18.8101 1.37301 18.8098 1.37479 18.8091 1.37643C18.7978 1.4143 18.7888 1.45327 18.7815 1.49237C18.7796 1.50249 18.7784 1.51301 18.7769 1.52313C18.7737 1.54364 18.77 1.56387 18.7681 1.58465C18.767 1.59586 18.767 1.6068 18.7664 1.61801C18.7655 1.63004 18.7649 1.64207 18.7644 1.65411C18.764 1.66696 18.7629 1.67967 18.7629 1.69252C18.7629 1.71221 18.7646 1.73176 18.7655 1.75131C18.7661 1.76184 18.7662 1.77209 18.7672 1.78262C18.7676 1.7885 18.7677 1.79438 18.7683 1.80026C18.7722 1.84045 18.7781 1.8801 18.7865 1.91934L21.7007 16.491C21.701 16.4924 21.7013 16.4936 21.7014 16.495L21.7021 16.4984C21.7062 16.5193 21.712 16.5396 21.7173 16.5601C21.7233 16.5833 21.7301 16.6063 21.7377 16.6291C21.7446 16.6502 21.7515 16.6714 21.7597 16.6917C21.7646 16.7038 21.7703 16.7155 21.7755 16.7274C21.7843 16.7471 21.7929 16.7668 21.8026 16.7858C21.8085 16.7974 21.8153 16.8086 21.8216 16.8201C21.8323 16.8393 21.8431 16.8581 21.855 16.8764C21.8618 16.8871 21.8689 16.8975 21.8761 16.908C21.8891 16.9269 21.9027 16.9454 21.9168 16.9633C21.9241 16.9727 21.9315 16.982 21.9392 16.9912C21.9552 17.0103 21.972 17.0288 21.9895 17.0467C21.9948 17.0521 21.9992 17.058 22.0045 17.0633L47.5166 42.5752L55.8532 50.9118C56.069 51.1275 56.352 51.2354 56.6347 51.2354C56.9174 51.2354 57.2004 51.1275 57.4162 50.9118L69.0874 39.2407C69.2948 39.0333 69.4112 38.7522 69.4112 38.4591C69.4112 38.1659 69.2951 37.8848 69.0877 37.6773ZM34.4571 6.17374L58.4059 30.1225L56.2176 32.3108L32.2688 8.36205L34.4571 6.17374ZM54.6545 33.8741L52.0493 36.4792L28.1004 12.5303L29.4015 11.2292C29.4019 11.2288 29.4026 11.2283 29.403 11.2278L30.7057 9.92515L54.6545 33.8741ZM21.7973 5.70329L21.2769 3.10168L22.0043 3.24715L23.8787 3.62203L21.7973 5.70329ZM22.3184 8.30859L26.484 4.14306L32.2153 5.28931L27.8399 9.66456C27.8395 9.66497 27.8391 9.66566 27.8386 9.66607L25.7572 11.7475C25.7568 11.7479 25.7561 11.7483 25.7557 11.7488L23.4645 14.04L22.3184 8.30859ZM24.349 16.282L26.5373 14.0937L50.4862 38.0423L48.2979 40.2307L24.349 16.282ZM56.6344 48.5675L49.8609 41.7939L52.8307 38.8241L59.9689 31.6859L66.7424 38.4595L56.6344 48.5675Z" fill="#F94020"/>
<path d="M63.1926 38.049L60.2452 35.1014C59.8137 34.67 59.1139 34.67 58.6821 35.1014C58.2505 35.5332 58.2505 36.2329 58.6821 36.6647L61.6296 39.6122C61.8454 39.8279 62.1284 39.9358 62.4111 39.9358C62.6938 39.9358 62.9768 39.8279 63.1926 39.6122C63.6242 39.1803 63.6242 38.4806 63.1926 38.049Z" fill="#F94020"/>
<path d="M69.0873 13.69L60.7508 5.35342L56.5825 1.18489C55.0024 -0.39503 52.4313 -0.394893 50.851 1.18489L47.0994 4.93643C45.5193 6.51676 45.5193 9.08774 47.0994 10.6681L51.2679 14.8363L59.6044 23.173C59.8116 23.3803 60.0927 23.4966 60.3859 23.4966C60.679 23.4966 60.9602 23.3801 61.1673 23.173L69.0872 15.2532C69.5189 14.8214 69.5189 14.1217 69.0873 13.69ZM48.6628 9.1047C47.9445 8.38652 47.9445 7.21785 48.6628 6.49981L52.4142 2.74826C53.1325 2.02994 54.3012 2.02994 55.0195 2.74826L58.4063 6.13504L52.0497 12.4916L48.6628 9.1047ZM60.3861 20.8283L53.6127 14.0546L59.9693 7.69814L66.7428 14.4716L60.3861 20.8283Z" fill="black"/>
<path d="M64.0855 13.69L60.7509 10.3554C60.3193 9.92387 59.6195 9.92387 59.188 10.3554C58.7564 10.7871 58.7564 11.4868 59.188 11.9186L62.5225 15.2533C62.7383 15.469 63.0213 15.5769 63.304 15.5769C63.5867 15.5769 63.8698 15.469 64.0855 15.2533C64.5171 14.8215 64.5171 14.1218 64.0855 13.69Z" fill="black"/>
</g>
<defs>
<clipPath id="clip0">
<rect width="70" height="70" fill="white"/>
</clipPath>
</defs>
</svg>
