<svg width="70" height="70" viewBox="0 0 70 70" fill="none" xmlns="http://www.w3.org/2000/svg">
<path d="M68.9039 0.584473H35H1.09607C0.490684 0.584473 0 1.07516 0 1.68041V15.7097V68.3193C0 68.9246 0.490684 69.4154 1.09607 69.4154H35H68.9039C69.5092 69.4154 70 68.9247 70 68.3193V15.7097V1.68041C70 1.07516 69.5093 0.584473 68.9039 0.584473ZM67.808 67.2232H35H2.19201V16.8057H35H67.808V67.2232ZM67.808 14.6136H35H2.19201V2.77648H35H67.808V14.6136Z" fill="black"/>
<path d="M58.382 5.26074H45.5219C44.9166 5.26074 44.4258 5.75143 44.4258 6.35682C44.4258 6.96207 44.9165 7.45289 45.5219 7.45289H58.382C58.9873 7.45289 59.4781 6.96221 59.4781 6.35682C59.4781 5.75156 58.9873 5.26074 58.382 5.26074Z" fill="black"/>
<path d="M64.2277 5.26074H61.8895C61.2843 5.26074 60.7935 5.75143 60.7935 6.35682C60.7935 6.96207 61.2841 7.45289 61.8895 7.45289H64.2277C64.8329 7.45289 65.3238 6.96221 65.3238 6.35682C65.3236 5.75156 64.8329 5.26074 64.2277 5.26074Z" fill="black"/>
<path d="M36.169 4.0918C35.6447 4.0918 35.1283 4.18025 34.6347 4.35484C34.6335 4.35525 34.6325 4.35594 34.6313 4.35621C32.7976 5.00617 31.5657 6.74934 31.5657 8.69525C31.5657 10.641 32.7976 12.3842 34.6312 13.0343C34.6324 13.0347 34.6334 13.0354 34.6346 13.0358C35.1283 13.2103 35.6445 13.2988 36.1689 13.2988C38.7072 13.2988 40.7722 11.2337 40.7722 8.69553C40.7722 6.15734 38.7073 4.0918 36.169 4.0918ZM36.169 11.1064C35.8941 11.1064 35.6238 11.0601 35.3651 10.9687C35.365 10.9687 35.3648 10.9686 35.3647 10.9686C34.4035 10.6285 33.7577 9.7149 33.7577 8.69512C33.7577 7.67533 34.4034 6.76191 35.3648 6.42162C35.365 6.42162 35.3651 6.42162 35.3652 6.42148C35.6238 6.33002 35.8942 6.28381 36.1691 6.28381C37.4987 6.28381 38.5804 7.36553 38.5804 8.69512C38.5804 10.0247 37.4986 11.1064 36.169 11.1064Z" fill="black"/>
<path d="M23.3091 4.0918C20.7708 4.0918 18.7058 6.15693 18.7058 8.69512C18.7058 11.2333 20.7709 13.2984 23.3091 13.2984C25.8473 13.2984 27.9125 11.2334 27.9125 8.69512C27.9125 6.1568 25.8473 4.0918 23.3091 4.0918ZM23.3091 11.1064C21.9795 11.1064 20.8978 10.0247 20.8978 8.69512C20.8978 7.36553 21.9795 6.28381 23.3091 6.28381C24.6387 6.28381 25.7204 7.36553 25.7204 8.69512C25.7204 10.0247 24.6386 11.1064 23.3091 11.1064Z" fill="black"/>
<path d="M10.4488 4.0918C7.91046 4.0918 5.84546 6.15693 5.84546 8.69512C5.84546 11.2333 7.9106 13.2984 10.4488 13.2984C12.987 13.2984 15.0521 11.2334 15.0521 8.69512C15.0521 6.1568 12.9871 4.0918 10.4488 4.0918ZM10.4488 11.1064C9.11919 11.1064 8.03747 10.0247 8.03747 8.69512C8.03747 7.36553 9.11919 6.28381 10.4488 6.28381C11.7784 6.28381 12.8601 7.36553 12.8601 8.69512C12.8601 10.0247 11.7784 11.1064 10.4488 11.1064Z" fill="black"/>
<path d="M65.6872 29.3312L54.1138 17.7576C53.6858 17.3295 52.9918 17.3295 52.5637 17.7576L45.1857 25.1357H35.0001H9.86438C9.25913 25.1357 8.76831 25.6264 8.76831 26.2318C8.76831 26.8372 9.25899 27.3279 9.86438 27.3279H35.0001H42.9935L34.2251 36.0963L26.48 43.8415H9.86438C9.25913 43.8415 8.76831 44.3321 8.76831 44.9375C8.76831 45.5429 9.25899 46.0336 9.86438 46.0336H24.2878L21.9256 48.3958C21.9243 48.3971 21.9233 48.3982 21.9219 48.3995L21.92 48.4014C21.9166 48.4049 21.9138 48.4084 21.9105 48.412C21.8888 48.4344 21.8676 48.4574 21.8475 48.4817C21.84 48.4906 21.8338 48.5002 21.8266 48.5093C21.8118 48.5285 21.7971 48.5476 21.7835 48.568C21.7746 48.5812 21.7668 48.5952 21.7585 48.6088C21.7484 48.6255 21.7379 48.6421 21.7287 48.6594C21.7194 48.6769 21.7113 48.695 21.703 48.7127C21.6963 48.7271 21.6891 48.7411 21.683 48.7558C21.6739 48.778 21.6661 48.8008 21.6583 48.8235C21.6545 48.8347 21.6501 48.8455 21.6465 48.857C21.6378 48.886 21.6305 48.9152 21.6244 48.9448C21.6232 48.9505 21.6214 48.9558 21.6201 48.9616L21.6195 48.965C21.6192 48.9664 21.6189 48.9676 21.6188 48.969L18.9033 62.5473H9.86438C9.25913 62.5473 8.76831 63.038 8.76831 63.6434C8.76831 64.2486 9.25899 64.7395 9.86438 64.7395H19.7958C19.7974 64.7395 19.7989 64.7396 19.8007 64.7396C19.8011 64.7396 19.8014 64.7396 19.8019 64.7396C19.8023 64.7396 19.8026 64.7396 19.8032 64.7396C19.8048 64.7396 19.8064 64.7395 19.8081 64.7395H20.6661C20.9586 64.7395 21.2235 64.6242 21.42 64.4376L26.2103 63.4795C26.211 63.4793 26.2117 63.4792 26.2124 63.4791L26.2168 63.4782L34.4766 61.8263C34.4776 61.8261 34.4787 61.8259 34.4798 61.8257L34.4836 61.825C34.49 61.8237 34.496 61.8216 34.5025 61.8202C34.5312 61.814 34.5598 61.8071 34.5879 61.7986C34.5999 61.795 34.6113 61.7903 34.6232 61.7863C34.6452 61.7787 34.6675 61.7713 34.6891 61.7624C34.7044 61.756 34.719 61.7485 34.7339 61.7415C34.7512 61.7334 34.7685 61.7258 34.7855 61.7166C34.8033 61.707 34.8201 61.6964 34.8372 61.6861C34.8504 61.6781 34.8641 61.6705 34.8769 61.6619C34.8973 61.6484 34.9166 61.6335 34.9359 61.6187C34.9449 61.6117 34.9545 61.6055 34.9633 61.5979C34.9873 61.5783 35.01 61.5573 35.0321 61.5357C35.0358 61.532 35.0399 61.5292 35.0433 61.5255L35.0455 61.5233C35.0467 61.5221 35.0478 61.5211 35.0489 61.5199L35.7748 60.794L50.8557 45.7131L57.4202 39.1486L65.6869 30.8819C66.1151 30.4531 66.1151 29.7592 65.6872 29.3312ZM27.7088 45.7123C27.7089 45.7122 27.7091 45.712 27.7092 45.712L35.7753 37.6459L45.0722 28.349L47.2422 30.5192L26.4153 51.3461L24.2451 49.176L27.7088 45.7123ZM48.792 32.0693L51.3755 34.6527L41.8659 44.1623L34.2252 51.803L30.5487 55.4795L27.9653 52.8961L48.792 32.0693ZM21.1991 62.2457L21.715 59.666L23.7788 61.7297L21.1991 62.2457ZM26.3621 61.2132L22.2317 57.0828L23.3684 51.3994L25.6404 53.6714L29.7738 57.8048L32.0458 60.0767L26.3621 61.2132ZM49.306 44.1623L34.2687 59.1995L32.0985 57.0295L35.775 53.353L43.4157 45.7123L52.9253 36.2027L55.0953 38.3727L49.306 44.1623ZM56.6454 36.8227L53.7005 33.8778L49.567 29.7444L46.622 26.7993L53.3389 20.0826L63.3623 30.106L56.6454 36.8227Z" fill="#F94020"/>
<path d="M53.896 23.1189C53.4681 22.6908 52.774 22.6908 52.346 23.1189L49.7156 25.7494C49.2875 26.1774 49.2875 26.8714 49.7156 27.2994C49.9295 27.5133 50.2101 27.6204 50.4905 27.6204C50.7709 27.6204 51.0515 27.5135 51.2654 27.2994L53.8959 24.6689C54.3241 24.2408 54.3241 23.5467 53.896 23.1189Z" fill="#F94020"/>
</svg>
