<svg width="70" height="70" viewBox="0 0 70 70" fill="none" xmlns="http://www.w3.org/2000/svg">
<g clip-path="url(#clip0)">
<path d="M68.9039 0.584473H1.09607C0.490684 0.584473 0 1.07516 0 1.68041V15.7097V68.3193C0 68.9246 0.490684 69.4154 1.09607 69.4154H68.9041C69.5095 69.4154 70.0001 68.9247 70.0001 68.3193V15.7097V1.68041C70 1.07516 69.5095 0.584473 68.9039 0.584473ZM67.808 67.2232H2.19201V16.8057H67.8079V67.2232H67.808ZM67.808 14.6136H2.19201V2.77648H67.8079V14.6136H67.808Z" fill="black"/>
<path d="M58.382 5.26074H45.5219C44.9165 5.26074 44.4258 5.75143 44.4258 6.35682C44.4258 6.96207 44.9163 7.45289 45.5219 7.45289H58.382C58.9874 7.45289 59.4781 6.96221 59.4781 6.35682C59.4781 5.75156 58.9874 5.26074 58.382 5.26074Z" fill="black"/>
<path d="M64.2277 5.26074H61.8895C61.2841 5.26074 60.7935 5.75143 60.7935 6.35682C60.7935 6.96207 61.284 7.45289 61.8895 7.45289H64.2277C64.8331 7.45289 65.3238 6.96221 65.3238 6.35682C65.3236 5.75156 64.8331 5.26074 64.2277 5.26074Z" fill="black"/>
<path d="M36.169 4.0918C33.6307 4.0918 31.5657 6.15693 31.5657 8.69512C31.5657 11.2333 33.6308 13.2984 36.169 13.2984C38.7072 13.2984 40.7723 11.2334 40.7723 8.69512C40.7723 6.1568 38.7073 4.0918 36.169 4.0918ZM36.169 11.1064C34.8394 11.1064 33.7577 10.0247 33.7577 8.69512C33.7577 7.36553 34.8394 6.28381 36.169 6.28381C37.4986 6.28381 38.5803 7.36553 38.5803 8.69512C38.5803 10.0247 37.4986 11.1064 36.169 11.1064Z" fill="black"/>
<path d="M23.3091 4.0918C20.7708 4.0918 18.7058 6.15693 18.7058 8.69512C18.7058 11.2333 20.7709 13.2984 23.3091 13.2984C25.8473 13.2984 27.9125 11.2334 27.9125 8.69512C27.9125 6.1568 25.8473 4.0918 23.3091 4.0918ZM23.3091 11.1064C21.9795 11.1064 20.8978 10.0247 20.8978 8.69512C20.8978 7.36553 21.9795 6.28381 23.3091 6.28381C24.6387 6.28381 25.7204 7.36553 25.7204 8.69512C25.7204 10.0247 24.6386 11.1064 23.3091 11.1064Z" fill="black"/>
<path d="M10.4488 4.0918C7.91046 4.0918 5.84546 6.15693 5.84546 8.69512C5.84546 11.2333 7.9106 13.2984 10.4488 13.2984C12.987 13.2984 15.0521 11.2334 15.0521 8.69512C15.0521 6.1568 12.9871 4.0918 10.4488 4.0918ZM10.4488 11.1064C9.11919 11.1064 8.03747 10.0247 8.03747 8.69512C8.03747 7.36553 9.11919 6.28381 10.4488 6.28381C11.7784 6.28381 12.8601 7.36553 12.8601 8.69512C12.8601 10.0247 11.7784 11.1064 10.4488 11.1064Z" fill="black"/>
<path d="M23.0887 31.7272C23.1125 30.8492 22.793 30.0145 22.1888 29.3769C21.5847 28.7392 20.7685 28.3751 19.8906 28.3513C19.0152 28.3274 18.178 28.6472 17.5404 29.2512L6.4339 39.7731C5.76863 40.4034 5.39457 41.2904 5.40755 42.2068C5.42054 43.1233 5.81976 43.9995 6.50281 44.6105L17.6094 54.548C18.2133 55.0882 18.9915 55.3856 19.8008 55.3856C19.8009 55.3856 19.801 55.3856 19.8012 55.3856C20.7359 55.3856 21.6292 54.9864 22.2524 54.2899C23.4613 52.9387 23.3456 50.8559 21.9944 49.6469L13.5494 42.0909L22.0635 34.0252C22.7007 33.4213 23.0649 32.6051 23.0887 31.7272ZM20.5554 32.4339L11.1774 41.3183C10.9549 41.529 10.8309 41.8232 10.8353 42.1297C10.8397 42.436 10.972 42.7265 11.2003 42.9309L20.5325 51.2807C20.9828 51.6836 21.0215 52.3779 20.6186 52.8284C20.4079 53.064 20.1175 53.1937 19.8008 53.1937C19.5313 53.1937 19.2721 53.0946 19.0708 52.9144L7.96433 42.977C7.73669 42.7733 7.60353 42.4812 7.59916 42.1758C7.59492 41.8704 7.7196 41.5746 7.94123 41.3646L19.0477 30.8428C19.2529 30.6484 19.5193 30.5423 19.8008 30.5423C19.8109 30.5423 19.8211 30.5424 19.8311 30.5427C20.1238 30.5506 20.3958 30.672 20.5971 30.8845C20.7985 31.0969 20.905 31.3752 20.8971 31.6679C20.8894 31.9606 20.768 32.2327 20.5554 32.4339Z" fill="#F94020"/>
<path d="M63.5664 39.7735L52.4599 29.2516C51.1438 28.0048 49.0586 28.0609 47.8113 29.3772C46.5646 30.6933 46.6209 32.7787 47.9369 34.0255L56.451 42.0913L48.006 49.6473C46.6549 50.8563 46.5391 52.9389 47.748 54.2904C48.3712 54.9866 49.2645 55.3859 50.199 55.3859C50.1991 55.3859 50.1992 55.3859 50.1994 55.3859C51.0089 55.3859 51.7872 55.0884 52.3908 54.5482L63.4973 44.6108C64.1805 43.9996 64.5797 43.1233 64.5924 42.2069C64.6056 41.2906 64.2315 40.4036 63.5664 39.7735ZM62.0357 42.9773L50.9292 52.9147C50.7279 53.0948 50.4688 53.194 50.1992 53.194H50.1991C49.8827 53.194 49.5923 53.0643 49.3817 52.8289C48.9786 52.3785 49.0172 51.6841 49.4675 51.2811L58.7995 42.9313C59.028 42.727 59.1603 42.4365 59.1646 42.1301C59.1689 41.8237 59.0449 41.5295 58.8225 41.3187L49.4444 32.4343C49.0057 32.0186 48.9868 31.3234 49.4024 30.8848C49.6176 30.6577 49.9077 30.5432 50.1984 30.5432C50.4691 30.5432 50.7405 30.6426 50.9519 30.843L62.0584 41.3649C62.2802 41.5749 62.4047 41.8706 62.4004 42.176V42.1763H62.4006C62.3965 42.4816 62.2636 42.7736 62.0357 42.9773Z" fill="#F94020"/>
<path d="M43.4359 31.953C43.2075 31.1048 42.6626 30.3963 41.9016 29.9583C41.9016 29.9582 41.9015 29.9582 41.9015 29.9582C40.3299 29.0539 38.3159 29.5963 37.4113 31.1672L26.3049 50.4574C25.4002 52.0285 25.9426 54.0428 27.5139 54.9476C28.0126 55.2346 28.5792 55.3865 29.1522 55.3865C30.3259 55.3865 31.4186 54.755 32.0037 53.7386L43.1102 34.4485C43.5484 33.6873 43.6642 32.8009 43.4359 31.953ZM41.2106 33.3545L30.1043 52.6447C29.9092 52.9837 29.5443 53.1942 29.1523 53.1942C28.9597 53.1942 28.7765 53.145 28.6075 53.0478C28.0837 52.7463 27.903 52.0747 28.2044 51.551L39.3111 32.2608C39.5135 31.909 39.8831 31.712 40.2627 31.712C40.4481 31.712 40.636 31.759 40.8078 31.858C41.0616 32.004 41.2432 32.2401 41.3192 32.5227C41.3953 32.8053 41.3568 33.1008 41.2106 33.3545Z" fill="#F94020"/>
</g>
<defs>
<clipPath id="clip0">
<rect width="70" height="70" fill="white"/>
</clipPath>
</defs>
</svg>
