<svg width="70" height="70" viewBox="0 0 70 70" fill="none" xmlns="http://www.w3.org/2000/svg">
<path d="M59.3891 42.6963C65.6822 38.2025 69.4104 31.208 69.4104 23.8C69.4104 10.6766 57.9405 0 43.8421 0C35.5419 0 27.7945 3.73652 22.9943 10.0211H1.69471C1.08426 10.0211 0.589478 10.516 0.589478 11.1263V57.6948C0.589478 58.3052 1.0844 58.8 1.69471 58.8H10.021V68.8948C10.021 69.3392 10.2872 69.7404 10.6967 69.913C10.8353 69.9716 10.9812 70 11.126 70C11.4087 70 11.6871 69.8916 11.8975 69.6864L23.0705 58.8H42.9579C43.5685 58.8 44.0632 58.3051 44.0632 57.6948V47.5969C46.1392 47.5803 48.2026 47.3327 50.204 46.8556L61.4329 51.0665C61.5593 51.1139 61.6907 51.1369 61.8207 51.1369C62.1284 51.1369 62.4287 51.0084 62.6424 50.7712C62.9466 50.4334 63.0129 49.9439 62.8095 49.5374L59.3891 42.6963ZM41.8526 56.5895H22.621C22.3328 56.5895 22.056 56.7022 21.8497 56.9032L12.2315 66.2748V57.6949C12.2315 57.0845 11.7366 56.5897 11.1263 56.5897H2.79995V12.2315H21.4949C20.155 14.477 19.207 16.9299 18.7043 19.4526H9.94733C9.33688 19.4526 8.84209 19.9475 8.84209 20.5579V24.0946C8.84209 24.7051 9.33702 25.1999 9.94733 25.1999H18.3193C18.4477 27.2669 18.8597 29.2899 19.5502 31.242H9.94733C9.33688 31.242 8.84209 31.7369 8.84209 32.3472V35.884C8.84209 36.4945 9.33702 36.9893 9.94733 36.9893H22.5606C24.2424 39.3369 26.3473 41.3807 28.7769 43.0314H9.94733C9.33688 43.0314 8.84209 43.5263 8.84209 44.1366V47.6736C8.84209 48.284 9.33702 48.7788 9.94733 48.7788H34.7052C35.3158 48.7788 35.8104 48.2839 35.8104 47.6736V46.4C37.7645 47.0016 39.7876 47.3792 41.8526 47.5269V56.5895ZM18.381 21.6632C18.3383 22.1052 18.3056 22.5477 18.2895 22.9895H11.0526V21.6632H18.381ZM20.4674 33.4526C20.6813 33.9008 20.91 34.3433 21.1536 34.7789H11.0526V33.4526H20.4674ZM32.7392 45.2421C33.0235 45.37 33.3108 45.493 33.5999 45.6109V46.5685H11.0526V45.2421H32.7392ZM50.6605 44.6659C50.4497 44.5869 50.2204 44.5743 50.0021 44.6291C48.0008 45.1337 45.9284 45.3895 43.8421 45.3895C43.5881 45.3895 43.3187 45.3845 42.9944 45.3738H42.9943C40.2646 45.284 37.6061 44.7617 35.0922 43.8222C34.5363 43.6144 33.98 43.3826 33.4386 43.1331C29.5889 41.3593 26.3425 38.6395 24.0501 35.2669C24.0499 35.2665 24.0495 35.2658 24.049 35.2654C24.0486 35.2647 24.048 35.2639 24.0475 35.2633C24.0475 35.2632 24.0474 35.2632 24.0474 35.2631C23.3269 34.2025 22.7035 33.0772 22.1938 31.9177C22.1936 31.9174 22.1935 31.917 22.1934 31.9166C22.1916 31.9125 22.1895 31.9084 22.1878 31.9041C22.1876 31.904 22.1876 31.9037 22.1876 31.9036C21.0973 29.4175 20.5254 26.7853 20.4883 24.0796C20.4883 24.0796 20.4883 24.0796 20.4883 24.0795V24.0793L20.4866 23.9783C20.4855 23.9189 20.4844 23.8595 20.4844 23.8C20.4844 22.779 20.5639 21.745 20.721 20.7264V20.7263C21.219 17.4971 22.4704 14.486 24.4403 11.7761C28.7947 5.78662 36.0475 2.21061 43.8421 2.21061C56.7217 2.21061 67.1999 11.8956 67.1999 23.8001C67.1999 30.7748 63.5225 37.3563 57.3626 41.4058C56.8946 41.7136 56.7307 42.3228 56.9812 42.8236L59.5735 48.0085L50.6605 44.6659Z" fill="black"/>
<path d="M62.8578 15.3227C62.5709 14.7839 61.9016 14.5798 61.3627 14.8669C60.8239 15.154 60.6199 15.8234 60.9069 16.362C62.1492 18.6935 62.7791 21.196 62.7791 23.7998C62.7791 24.4103 63.2737 24.905 63.8843 24.905C64.4949 24.905 64.9896 24.4101 64.9896 23.7998C64.9896 20.8297 64.2725 17.9775 62.8578 15.3227Z" fill="black"/>
<path d="M59.0442 10.3397C55.0187 6.5233 49.6198 4.42139 43.8422 4.42139C43.2316 4.42139 42.7369 4.91631 42.7369 5.52662C42.7369 6.13707 43.2316 6.63185 43.8422 6.63185C49.0514 6.63185 53.9103 8.5183 57.5233 11.9439C57.737 12.1465 58.0108 12.247 58.2836 12.247C58.5764 12.247 58.8685 12.1314 59.0858 11.9022C59.5058 11.4593 59.4872 10.7597 59.0442 10.3397Z" fill="black"/>
<path d="M42.6632 21.2212C40.266 21.2212 38.3158 23.1715 38.3158 25.5686C38.3158 27.9657 40.266 29.916 42.6632 29.916C45.0604 29.916 47.0106 27.9657 47.0106 25.5686C47.0104 23.1715 45.0604 21.2212 42.6632 21.2212ZM42.6632 27.7054C41.4849 27.7054 40.5264 26.7467 40.5264 25.5686C40.5264 24.3903 41.4851 23.4317 42.6632 23.4317C43.8414 23.4317 44.8 24.3903 44.8 25.5686C44.8 26.7467 43.8413 27.7054 42.6632 27.7054Z" fill="#F94020"/>
<path d="M54.4526 21.2212C52.0554 21.2212 50.1052 23.1715 50.1052 25.5686C50.1052 27.9657 52.0554 29.916 54.4526 29.916C56.8498 29.916 58.8 27.9657 58.8 25.5686C58.8 23.1715 56.8498 21.2212 54.4526 21.2212ZM54.4526 27.7054C53.2744 27.7054 52.3158 26.7467 52.3158 25.5686C52.3158 24.3903 53.2745 23.4317 54.4526 23.4317C55.6307 23.4317 56.5894 24.3903 56.5894 25.5686C56.5895 26.7467 55.6309 27.7054 54.4526 27.7054Z" fill="#F94020"/>
<path d="M30.8737 21.2212C28.4767 21.2212 26.5264 23.1715 26.5264 25.5686C26.5264 27.9657 28.4767 29.916 30.8737 29.916C33.2708 29.916 35.2211 27.9657 35.2211 25.5686C35.2211 23.1715 33.2708 21.2212 30.8737 21.2212ZM30.8737 27.7054C29.6955 27.7054 28.7368 26.7467 28.7368 25.5686C28.7368 24.3903 29.6955 23.4317 30.8737 23.4317C32.052 23.4317 33.0105 24.3903 33.0105 25.5686C33.0105 26.7467 32.052 27.7054 30.8737 27.7054Z" fill="#F94020"/>
</svg>
