<svg width="70" height="70" viewBox="0 0 70 70" fill="none" xmlns="http://www.w3.org/2000/svg">
<path d="M20 58H10L20 68V58Z" fill="#F94020"/>
<path d="M61.157 0H17.1657C16.55 0 16.051 0.498886 16.051 1.11467V16.5711C16.051 17.0446 16.35 17.4661 16.7968 17.6229C17.2435 17.7794 17.7404 17.637 18.0362 17.2674L21.5061 12.9299H32.6964V19.0233H8.84294C8.22729 19.0233 7.72827 19.5222 7.72827 20.1379V57.5897C7.72827 57.6266 7.73019 57.6633 7.73374 57.7003C7.73538 57.7161 7.73839 57.7316 7.74058 57.7474C7.74345 57.7677 7.74591 57.788 7.74974 57.808C7.75343 57.8263 7.75835 57.8441 7.763 57.8621C7.76737 57.8794 7.7712 57.8967 7.77626 57.9137C7.78159 57.9314 7.78829 57.9488 7.79458 57.9662C7.80073 57.9831 7.8062 58.0001 7.81304 58.0168C7.81987 58.0332 7.8278 58.0488 7.83519 58.0646C7.84325 58.0817 7.85077 58.0988 7.85966 58.1156C7.86786 58.1309 7.87716 58.1457 7.88604 58.1605C7.89575 58.1766 7.90491 58.1931 7.91558 58.209C7.92651 58.2255 7.93895 58.241 7.95085 58.2568C7.96083 58.2701 7.96999 58.2838 7.98052 58.2966C8.00253 58.3234 8.02591 58.3491 8.05024 58.3737C8.05175 58.3752 8.05298 58.3769 8.05434 58.3784L19.3495 69.6735C19.3511 69.6752 19.353 69.6767 19.3547 69.6783C19.379 69.7024 19.4044 69.7256 19.4311 69.7473C19.4441 69.7579 19.4575 69.7672 19.4707 69.7769C19.4866 69.7888 19.5022 69.8011 19.5187 69.8121C19.5343 69.8225 19.5507 69.8317 19.5666 69.8413C19.5818 69.8503 19.5967 69.8599 19.6123 69.8683C19.6287 69.8771 19.6453 69.8846 19.6622 69.8924C19.6784 69.9002 19.6944 69.9081 19.7111 69.9151C19.7275 69.9218 19.7441 69.9273 19.7606 69.9333C19.7782 69.9397 19.796 69.9465 19.814 69.952C19.8306 69.9571 19.8471 69.9606 19.8638 69.9647C19.8824 69.9695 19.9009 69.9747 19.9199 69.9784C19.9391 69.9822 19.9586 69.9846 19.978 69.9873C19.9947 69.9896 20.0108 69.9928 20.0276 69.9944C20.0641 69.9979 20.1009 69.9999 20.1375 69.9999H51.0507C51.6663 69.9999 52.1653 69.501 52.1653 68.8852V20.1381C52.1653 19.5223 51.6663 19.0234 51.0507 19.0234H45.6264V12.9299H56.8166L60.2866 17.2675C60.5823 17.637 61.0791 17.7796 61.5259 17.623C61.9727 17.4662 62.2717 17.0446 62.2717 16.5712V1.11467C62.2717 0.498886 61.7727 0 61.157 0ZM19.0234 66.1942L11.534 58.7047H15.3822H19.0234V66.1942ZM49.9363 21.2526V67.7705H21.2527V58.7047H44.5117C45.1273 58.7047 45.6264 58.2058 45.6264 57.5901C45.6264 56.9743 45.1273 56.4754 44.5117 56.4754H20.1381H15.3822H9.9576V21.2526H32.6964V27.9405H15.3822C14.7665 27.9405 14.2675 28.4394 14.2675 29.0551C14.2675 29.6709 14.7665 30.1698 15.3822 30.1698H32.6964V37.4521H15.3822C14.7665 37.4521 14.2675 37.951 14.2675 38.5668C14.2675 39.1826 14.7665 39.6814 15.3822 39.6814H32.6964V46.9638H15.3822C14.7665 46.9638 14.2675 47.4626 14.2675 48.0784C14.2675 48.6942 14.7665 49.1931 15.3822 49.1931H32.6964V51.0508C32.6964 51.6666 33.1954 52.1655 33.811 52.1655H44.5117C45.1273 52.1655 45.6264 51.6666 45.6264 51.0508V48.0784V38.5668V29.0551V21.2526H49.9363ZM60.0424 13.3935L58.2226 11.1189C58.0111 10.8546 57.691 10.7007 57.3523 10.7007H44.5116C43.8959 10.7007 43.3969 11.1996 43.3969 11.8153V20.1381V29.0553V38.5669V48.0786V49.9363H34.9255V48.0784V38.5668V29.0551V20.1379V11.8152C34.9255 11.1994 34.4265 10.7005 33.8109 10.7005H20.9701C20.6316 10.7005 20.3113 10.8545 20.0998 11.1188L18.2801 13.3934V2.22933H60.0422V13.3935H60.0424Z" fill="black"/>
<path d="M58.1847 4.16113H50.4565C49.8408 4.16113 49.3418 4.66002 49.3418 5.2758C49.3418 5.89158 49.8408 6.39046 50.4565 6.39046H58.1847C58.8004 6.39046 59.2994 5.89158 59.2994 5.2758C59.2994 4.66016 58.8004 4.16113 58.1847 4.16113Z" fill="#F94020"/>
<path d="M46.2951 4.16113H40.9447C40.3291 4.16113 39.8301 4.66002 39.8301 5.2758C39.8301 5.89158 40.3291 6.39046 40.9447 6.39046H46.2951C46.9107 6.39046 47.4097 5.89158 47.4097 5.2758C47.4097 4.66016 46.9107 4.16113 46.2951 4.16113Z" fill="#F94020"/>
</svg>
