<svg width="70" height="70" viewBox="0 0 70 70" fill="none" xmlns="http://www.w3.org/2000/svg">
<path d="M68.5999 0H1.39991C0.789463 0 0.294678 0.494785 0.294678 1.10523V48.8526V57.6948C0.294678 58.3054 0.789599 58.8 1.39991 58.8H30.1696L29.4017 63.6631H26.7473C24.5126 63.6631 22.6947 65.4812 22.6947 67.7157V68.8946C22.6947 69.5052 23.1896 69.9999 23.7999 69.9999H29.6947H40.3051H46.1999C46.8104 69.9999 47.3051 69.5052 47.3051 68.8946V67.7157C47.3051 65.4812 45.4872 63.6631 43.2525 63.6631H40.5981L39.8302 58.8H68.5999C69.2104 58.8 69.7051 58.3052 69.7051 57.6948V48.8526V1.10523C69.7051 0.494785 69.2104 0 68.5999 0ZM43.2525 65.8737C44.2683 65.8737 45.0947 66.7 45.0947 67.7158V67.7895H40.3051H29.6947H24.9051V67.7158C24.9051 66.7 25.7315 65.8737 26.7473 65.8737H30.3457C30.3463 65.8737 30.347 65.8738 30.3475 65.8738C30.3486 65.8738 30.3496 65.8737 30.3508 65.8737H39.6492C39.6503 65.8737 39.6512 65.8738 39.6524 65.8738C39.653 65.8738 39.6537 65.8737 39.6542 65.8737H43.2525ZM31.6396 63.6632L32.4076 58.8001H37.5924L38.3603 63.6632H31.6396ZM67.4947 56.5895H38.5367H31.463H2.50515V49.958H67.4947V56.5895ZM67.4947 47.7474H2.50515V2.21047H67.4947V47.7474Z" fill="black"/>
<path d="M36.7684 51.2842H33.2315C32.621 51.2842 32.1262 51.7788 32.1262 52.3894C32.1262 53 32.6211 53.4947 33.2315 53.4947H36.7684C37.3788 53.4947 37.8736 53 37.8736 52.3894C37.8736 51.779 37.3787 51.2842 36.7684 51.2842Z" fill="black"/>
<path d="M55.0422 51.2842H43.2527C42.6422 51.2842 42.1475 51.7788 42.1475 52.3894C42.1475 53 42.6424 53.4947 43.2527 53.4947H55.0422C55.6527 53.4947 56.1475 53 56.1475 52.3894C56.1475 51.779 55.6525 51.2842 55.0422 51.2842Z" fill="black"/>
<path d="M63.8841 51.2842H59.7578C59.1474 51.2842 58.6526 51.7788 58.6526 52.3894C58.6526 53 59.1475 53.4947 59.7578 53.4947H63.8841C64.4946 53.4947 64.9894 53 64.9894 52.3894C64.9895 51.779 64.4946 51.2842 63.8841 51.2842Z" fill="black"/>
<path d="M19.0105 26.0249V6.41041C19.0105 5.79982 18.5156 5.30518 17.9053 5.30518C17.2948 5.30518 16.8 5.79996 16.8 6.41041V26.0249C13.4636 26.5565 10.9053 29.4531 10.9053 32.9367C10.9053 36.4203 13.4636 39.317 16.8 39.8485V42.9577C16.8 43.5682 17.295 44.0629 17.9053 44.0629C18.5157 44.0629 19.0105 43.5682 19.0105 42.9577V39.8485C22.347 39.317 24.9053 36.4203 24.9053 32.9367C24.9053 29.4531 22.347 26.5565 19.0105 26.0249ZM17.9053 37.7262C15.2644 37.7262 13.1157 35.5777 13.1157 32.9367C13.1157 30.2957 15.2644 28.1472 17.9053 28.1472C20.5461 28.1472 22.6948 30.2957 22.6948 32.9367C22.6948 35.5777 20.5461 37.7262 17.9053 37.7262Z" fill="#F94020"/>
<path d="M36.1052 9.51967V6.41041C36.1052 5.79982 35.6103 5.30518 35 5.30518C34.3895 5.30518 33.8948 5.79996 33.8948 6.41041V9.51967C30.5583 10.0512 28 12.9479 28 16.4315C28 19.9151 30.5583 22.8117 33.8948 23.3433V42.9578C33.8948 43.5684 34.3897 44.063 35 44.063C35.6104 44.063 36.1052 43.5684 36.1052 42.9578V23.3434C39.4417 22.8119 42 19.9152 42 16.4316C42 12.948 39.4417 10.0512 36.1052 9.51967ZM35 21.221C32.3591 21.221 30.2105 19.0725 30.2105 16.4315C30.2105 13.7905 32.3591 11.642 35 11.642C37.6409 11.642 39.7895 13.7905 39.7895 16.4315C39.7895 19.0725 37.6409 21.221 35 21.221Z" fill="#F94020"/>
<path d="M53.2 23.0775V6.41041C53.2 5.79982 52.705 5.30518 52.0947 5.30518C51.4843 5.30518 50.9895 5.79996 50.9895 6.41041V23.0775C47.653 23.6091 45.0947 26.5057 45.0947 29.9893C45.0947 33.4729 47.653 36.3696 50.9895 36.9012V42.9577C50.9895 43.5682 51.4844 44.0629 52.0947 44.0629C52.7052 44.0629 53.2 43.5682 53.2 42.9577V36.9012C56.5364 36.3696 59.0947 33.4729 59.0947 29.9893C59.0947 26.5057 56.5364 23.6091 53.2 23.0775ZM52.0947 34.7789C49.4539 34.7789 47.3052 32.6303 47.3052 29.9893C47.3052 27.3483 49.4539 25.1998 52.0947 25.1998C54.7356 25.1998 56.8843 27.3483 56.8843 29.9893C56.8843 32.6303 54.7356 34.7789 52.0947 34.7789Z" fill="#F94020"/>
</svg>
