<svg width="70" height="70" viewBox="0 0 70 70" fill="none" xmlns="http://www.w3.org/2000/svg">
<g clip-path="url(#clip0)">
<path d="M68.9039 0.584473H1.09607C0.490547 0.584473 0 1.07516 0 1.68041V68.3192C0 68.9244 0.490547 69.4153 1.09607 69.4153H68.9041C69.5095 69.4153 70.0001 68.9246 70.0001 68.3192V1.68041C70 1.07516 69.5095 0.584473 68.9039 0.584473ZM67.808 67.2232H2.19201V2.77648H67.8079V67.2232H67.808Z" fill="black"/>
<path d="M64.1544 16.7395V7.52625C64.1544 6.921 63.6639 6.43018 63.0583 6.43018H49.6137H35H20.3862H6.94145C6.33606 6.43018 5.84538 6.92086 5.84538 7.52625V20.3864V34.4157V44.5792C4.16073 45.0577 2.92261 46.6089 2.92261 48.4448C2.92261 50.2808 4.16073 51.832 5.84538 52.3104V62.4739C5.84538 63.0792 6.33593 63.57 6.94145 63.57H20.3861H35H49.6137H63.0583C63.6637 63.57 64.1544 63.0793 64.1544 62.4739V48.4448V34.4155V24.0331C65.5489 23.3879 66.4926 21.9747 66.4926 20.3863C66.4926 18.7979 65.5491 17.3848 64.1544 16.7395ZM50.7098 8.62232H61.9624V16.4012C60.3547 16.6066 59.0415 17.7647 58.6083 19.2904H50.7098V8.62232ZM50.7098 21.4824H58.6105C58.7121 21.8376 58.8622 22.1776 59.0564 22.4926L51.4173 30.8263C51.1906 30.7118 50.9539 30.6191 50.7099 30.5498V21.4824H50.7098ZM36.096 8.62232H48.5178V19.2904H36.096V8.62232ZM36.096 21.4824H48.5178V30.55C47.1817 30.9294 46.1276 31.9835 45.7481 33.3196H36.096V21.4824ZM36.096 35.5116H45.7476C45.8254 35.7856 45.9321 36.0503 46.0664 36.3016L37.0298 44.9768C36.7366 44.804 36.4233 44.67 36.096 44.5777V35.5116ZM21.4822 8.62232H33.9039V19.2904H21.4822V8.62232ZM21.4822 21.4824H33.9039V33.3195H24.2518C23.8724 31.9835 22.8182 30.9292 21.4822 30.5498V21.4824ZM23.9335 36.3019C24.0678 36.0503 24.1747 35.7859 24.2524 35.5119H33.9039V44.578C33.5766 44.6704 33.2634 44.8043 32.9701 44.9771L23.9335 36.3019ZM31.4527 46.5586C31.3184 46.8102 31.2115 47.0746 31.1338 47.3487H21.4823V38.2826C21.8096 38.1902 22.1228 38.0564 22.4161 37.8836L31.4527 46.5586ZM8.03753 8.62232H19.2902V19.2904H8.03753V8.62232ZM8.03753 21.4824H19.2902V30.55C17.9541 30.9294 16.8999 31.9835 16.5205 33.3196H8.03753V21.4824ZM8.03767 35.5116H16.5227C16.6237 35.8644 16.7725 36.2023 16.9649 36.5154L9.10517 45.059C8.77458 44.8473 8.41569 44.6844 8.03767 44.5776V35.5116ZM5.11476 48.4448C5.11476 47.4375 5.93411 46.6181 6.94145 46.6181C7.48696 46.6181 7.99979 46.8596 8.34884 47.2804C8.34897 47.2805 8.34897 47.2806 8.34911 47.2808C8.62323 47.6118 8.76815 48.0143 8.76815 48.4448C8.76815 49.4521 7.9488 50.2715 6.94145 50.2715C5.93425 50.2715 5.11476 49.4521 5.11476 48.4448ZM19.2902 61.378H8.03753V52.3104C9.37354 51.931 10.4278 50.8768 10.8072 49.5407H19.2902V61.378ZM19.2902 47.3489H10.8051C10.7429 47.1297 10.6625 46.9163 10.5641 46.7107L18.5762 38.0017C18.8049 38.1178 19.0438 38.2114 19.29 38.2814V47.3489H19.2902ZM19.1521 35.7581C19.1519 35.758 19.1519 35.758 19.1518 35.7579C18.7698 35.4062 18.5594 34.9297 18.5594 34.4157C18.5595 33.4082 19.3789 32.5888 20.3862 32.5888C21.3936 32.5888 22.2129 33.4082 22.2129 34.4155C22.2129 34.8872 22.0318 35.3359 21.703 35.6786C21.7028 35.6787 21.7027 35.6788 21.7026 35.679C21.3538 36.0421 20.8864 36.2424 20.3862 36.2424C19.9297 36.2425 19.4916 36.0705 19.1521 35.7581ZM33.9039 61.378H21.4822V49.5409H31.1342C31.5136 50.8769 32.5679 51.9311 33.9039 52.3105V61.378ZM33.1733 48.4448C33.1733 47.9731 33.3544 47.5244 33.6832 47.1818C33.6834 47.1817 33.6835 47.1815 33.6836 47.1814C34.0324 46.8183 34.4998 46.6181 35 46.6181C35.5001 46.6181 35.9674 46.8181 36.3163 47.1814C36.3164 47.1815 36.3166 47.1817 36.3167 47.1818C36.6457 47.5246 36.8267 47.973 36.8267 48.4448C36.8267 49.4521 36.0073 50.2715 35 50.2715C33.9926 50.2715 33.1733 49.4521 33.1733 48.4448ZM48.5178 61.378H36.096V52.3104C37.4321 51.931 38.4863 50.8768 38.8657 49.5407H48.5178V61.378ZM48.5178 47.3489H38.8662C38.7884 47.0749 38.6817 46.8103 38.5474 46.5589L47.584 37.8837C47.8772 38.0566 48.1904 38.1905 48.5178 38.2828V47.3489ZM48.2975 35.679C48.2974 35.6788 48.2972 35.6787 48.2971 35.6786C47.9683 35.3358 47.7871 34.8874 47.7871 34.4155C47.7871 33.4082 48.6065 32.5888 49.6138 32.5888C50.069 32.5888 50.5062 32.7602 50.8454 33.0709C50.8455 33.0711 50.8457 33.0713 50.8459 33.0715C50.8461 33.0716 50.8462 33.0716 50.8464 33.0717C51.2296 33.4235 51.4407 33.9007 51.4407 34.4157C51.4405 35.423 50.6212 36.2424 49.6138 36.2424C49.1137 36.2424 48.6463 36.0422 48.2975 35.679ZM61.9624 61.378H50.7098V49.5409H61.9624V61.378ZM61.9624 47.3489H50.7098V38.2813C52.0458 37.9019 53.0999 36.8476 53.4794 35.5116H61.9624V47.3489ZM61.9624 33.3196H53.4772C53.3756 32.9644 53.2255 32.6244 53.0312 32.3094L60.6704 23.9757C61.0747 24.1798 61.511 24.3137 61.9624 24.3718V33.3196ZM62.8411 22.1761C62.8397 22.1763 62.8385 22.1765 62.8371 22.1766C62.7178 22.2005 62.5957 22.2129 62.4739 22.2129C62.0189 22.2129 61.5815 22.0415 61.2423 21.7308C61.2422 21.7306 61.242 21.7304 61.2418 21.7302C61.2416 21.7301 61.2415 21.7301 61.2415 21.73C60.8581 21.3782 60.6472 20.901 60.6472 20.386C60.6472 19.3787 61.4665 18.5593 62.4739 18.5593C62.5957 18.5593 62.7178 18.5716 62.8371 18.5955C62.8385 18.5958 62.8397 18.596 62.8411 18.5961C63.6868 18.7685 64.3006 19.5211 64.3006 20.3863C64.3006 21.2514 63.6868 22.0041 62.8411 22.1761Z" fill="#F94020"/>
</g>
<defs>
<clipPath id="clip0">
<rect width="70" height="70" fill="white"/>
</clipPath>
</defs>
</svg>
