<svg width="103" height="40" viewBox="0 0 103 40" fill="none" xmlns="http://www.w3.org/2000/svg">
<g clip-path="url(#clip0)">
<path d="M34.2027 15.6156C34.2027 13.8732 34.8818 12.4708 36.2399 11.4084C37.598 10.3461 39.4875 9.8154 41.9084 9.81641C43.8109 9.81641 45.3415 10.1097 46.5 10.6962C47.6675 11.2887 48.6018 12.2553 49.1527 13.4411C49.4814 14.1141 49.2737 14.5975 48.5296 14.8913L45.9359 16.005C45.59 16.1599 45.3218 16.2031 45.1313 16.1347C44.9407 16.0663 44.7416 15.842 44.5339 15.4617C44.0842 14.5643 43.2105 14.1156 41.9129 14.1156C40.2694 14.1156 39.4477 14.5643 39.4477 15.4617C39.4477 15.9647 39.7245 16.3168 40.278 16.518C40.8315 16.7192 41.6886 16.8918 42.8491 17.0356C43.6103 17.1362 44.2415 17.2399 44.7426 17.3465C45.3596 17.4869 45.9629 17.6818 46.5453 17.929C47.1623 18.1624 47.7297 18.5095 48.218 18.9521C48.6849 19.4278 49.0511 19.9923 49.2949 20.612C49.6112 21.3929 49.7656 22.2297 49.7486 23.0718C49.7486 24.9188 49.0005 26.364 47.5042 27.4072C46.0079 28.4505 44.0731 28.9726 41.6996 28.9736C37.6525 28.9736 35.1359 27.6361 34.1498 24.9611C34.0117 24.5647 33.9986 24.2629 34.1105 24.0557C34.2224 23.8484 34.4689 23.6759 34.85 23.5381L37.2895 22.6583C37.6696 22.5205 37.9721 22.4903 38.197 22.5677C38.4218 22.6452 38.6295 22.865 38.8201 23.2272C39.2869 24.1417 40.2639 24.5989 41.7511 24.5989C43.6012 24.5989 44.5268 24.107 44.5278 23.1231C44.5278 22.6573 44.2758 22.3208 43.7716 22.1135C43.2675 21.9063 42.5063 21.7338 41.4879 21.5959C41.004 21.5275 40.6511 21.4772 40.4292 21.445C40.2074 21.4128 39.8545 21.3479 39.3706 21.2504C38.9897 21.1811 38.613 21.0904 38.2423 20.9787C37.9741 20.8922 37.6323 20.7629 37.2169 20.5909C36.8655 20.4545 36.5338 20.2718 36.2308 20.0477C35.9485 19.8224 35.6798 19.5805 35.4263 19.3233C35.1436 19.0469 34.9189 18.717 34.7653 18.353C34.605 17.958 34.4751 17.5514 34.3767 17.1367C34.2573 16.6386 34.1989 16.1278 34.2027 15.6156Z" fill="white"/>
<path d="M60.1932 17.0643C60.1932 14.8038 60.8894 13.0307 62.2818 11.745C63.6743 10.4593 65.6404 9.81641 68.1802 9.81641C70.7008 9.81641 72.6594 10.4593 74.0558 11.745C75.4522 13.0307 76.1484 14.8038 76.1444 17.0643V21.7302C76.1444 23.9918 75.4482 25.7649 74.0558 27.0496C72.6634 28.3343 70.7074 28.9756 68.1877 28.9736C65.6449 28.9736 63.6788 28.3308 62.2894 27.0451C60.9 25.7594 60.2013 23.9878 60.1932 21.7302V17.0643ZM71.0114 16.8319C71.0114 16.0211 70.7648 15.4039 70.2718 14.9803C69.7788 14.5568 69.0826 14.3455 68.1832 14.3465C67.2667 14.3465 66.5609 14.5578 66.0658 14.9803C65.5708 15.4029 65.3273 16.0201 65.3354 16.8319V21.9626C65.3354 22.7745 65.5819 23.3917 66.0749 23.8142C66.568 24.2368 67.2737 24.448 68.1923 24.448C69.0916 24.448 69.7878 24.2368 70.2809 23.8142C70.7739 23.3917 71.0204 22.7745 71.0204 21.9626L71.0114 16.8319Z" fill="white"/>
<path d="M101.89 10.2056C102.287 10.2056 102.568 10.2876 102.734 10.4515C102.899 10.6155 102.981 10.8957 102.98 11.2921V27.4976C102.98 27.895 102.898 28.1751 102.734 28.3381C102.569 28.5011 102.288 28.5831 101.89 28.5841H98.9572C98.4733 28.5841 98.1204 28.4116 97.8986 28.0665L93.9028 21.9308C93.4179 21.1822 92.9969 20.3942 92.6445 19.5752C92.342 18.8508 92.0002 17.8584 91.6191 16.5978H91.4089C91.6509 17.6682 91.8152 18.4278 91.9019 18.8765C91.9886 19.3252 92.0708 19.9424 92.1485 20.7281C92.2261 21.5138 92.2649 22.3639 92.2649 23.2783V27.5036C92.2649 27.901 92.1827 28.1812 92.0184 28.3442C91.854 28.5071 91.5642 28.5891 91.1488 28.5901H88.5278C88.1124 28.5901 87.8225 28.5081 87.6582 28.3442C87.4938 28.1802 87.4132 27.898 87.4162 27.4976V11.2921C87.4162 10.8957 87.4984 10.6155 87.6627 10.4515C87.8271 10.2876 88.1169 10.2056 88.5323 10.2056H91.5904C92.0945 10.2056 92.458 10.3781 92.6808 10.7232L96.9337 17.3539C97.2011 17.7525 97.4436 18.1673 97.6596 18.5958C97.8673 19.0103 98.0271 19.3553 98.139 19.631C98.251 19.9066 98.4022 20.295 98.5928 20.796C98.7833 21.299 98.9562 21.7306 99.1115 22.0907H99.3187C98.869 20.6239 98.562 19.4766 98.3977 18.6486C98.2177 17.6235 98.1362 16.5836 98.1542 15.543V11.2921C98.1542 10.8957 98.2318 10.6155 98.3871 10.4515C98.5423 10.2876 98.8277 10.2056 99.2431 10.2056H101.89Z" fill="white"/>
<path d="M23.4648 0.339533C23.2379 0.113178 22.8523 0 22.3078 0H19.6309C19.0562 0 18.6554 0.113178 18.4285 0.339533C18.2017 0.565888 18.0882 0.950692 18.0882 1.49394V21.5943C18.0882 25.548 16.1372 27.5248 12.2353 27.5248C11.9372 27.5244 11.6394 27.5088 11.343 27.478V32.7989C11.6348 32.814 11.9313 32.8215 12.2353 32.8215C15.986 32.8215 18.852 31.8256 20.8332 29.8336C22.8144 27.8417 23.8051 25.0802 23.8051 21.549V1.49394C23.8051 0.950692 23.6916 0.565888 23.4648 0.339533Z" fill="#F94020"/>
<path d="M10.0211 20.271H10.5565C10.7895 20.271 11.013 20.3634 11.1778 20.5278C11.3426 20.6922 11.4352 20.9152 11.4352 21.1477V32.802C10.801 32.802 10.1928 32.5507 9.7444 32.1033C9.29599 31.6558 9.04407 31.049 9.04407 30.4162V21.2473C9.04407 20.9884 9.14716 20.7401 9.33067 20.557C9.51418 20.3739 9.76307 20.271 10.0226 20.271H10.0211Z" fill="#F94020"/>
<path d="M10.3576 20.4684L11.0731 21.1823C11.2058 21.3147 11.2804 21.4943 11.2804 21.6816C11.2804 21.8689 11.2058 22.0486 11.0731 22.181L1.88781 31.3459C1.76188 31.4715 1.59108 31.5421 1.41299 31.5421C1.2349 31.5421 1.0641 31.4715 0.938169 31.3459L0.197059 30.6064C0.0711282 30.4808 0.000380425 30.3104 0.000380583 30.1327C0.000380741 29.955 0.0711266 29.7845 0.197057 29.6589L9.40799 20.4684C9.53392 20.3427 9.70472 20.2722 9.88281 20.2722C10.0609 20.2722 10.2317 20.3427 10.3576 20.4684Z" fill="#F94020"/>
<path d="M11.0991 39.0797L10.3836 39.7936C10.2509 39.926 10.0709 40.0004 9.88316 40.0004C9.69544 40.0004 9.51541 39.926 9.38267 39.7936L0.196333 30.6276C0.0704026 30.502 -0.000345361 30.3316 -0.000345529 30.1539C-0.000344854 29.9762 0.0704021 29.8057 0.196333 29.6801L0.937443 28.9406C1.06337 28.815 1.23417 28.7444 1.41227 28.7444C1.59036 28.7444 1.76116 28.815 1.88709 28.9406L11.0991 38.1322C11.225 38.2578 11.2958 38.4283 11.2958 38.606C11.2958 38.7837 11.225 38.9541 11.0991 39.0797Z" fill="#F94020"/>
</g>
<defs>
<clipPath id="clip0">
<rect width="102.979" height="40" fill="white"/>
</clipPath>
</defs>
</svg>
