<svg width="40" height="40" viewBox="0 0 40 40" fill="none" xmlns="http://www.w3.org/2000/svg">
<path d="M33.0769 3.84617H28.4231V3.07695C28.4231 2.65219 28.0787 2.30773 27.6539 2.30773H23.488C22.8855 0.923437 21.5108 0 19.9615 0C18.4123 0 17.0376 0.923594 16.4351 2.30766H12.2692C11.8444 2.30766 11.5 2.65211 11.5 3.07687V3.84609H6.92303C6.49818 3.84609 6.15381 4.19055 6.15381 4.61531V39.2307C6.15381 39.6555 6.49818 39.9999 6.92303 39.9999H33.0769C33.5016 39.9999 33.8461 39.6555 33.8461 39.2307V4.61539C33.8462 4.19063 33.5017 3.84617 33.0769 3.84617ZM16.9815 3.84617C17.3326 3.84617 17.639 3.60852 17.7265 3.26859C17.9887 2.24992 18.9078 1.53844 19.9615 1.53844C21.0152 1.53844 21.9343 2.24992 22.1966 3.26867C22.2841 3.60859 22.5906 3.84617 22.9416 3.84617H26.8847V6.92312H13.0385V3.84617H16.9815ZM10.7308 33.8462H15.3462C15.771 33.8462 16.1154 33.5017 16.1154 33.077C16.1154 32.6522 15.771 32.3077 15.3462 32.3077H10.7308V5.38461H11.5V7.69227C11.5 8.11703 11.8444 8.46148 12.2692 8.46148H27.6538C28.0786 8.46148 28.423 8.11703 28.423 7.69227V5.38461H29.1922V35.3846H10.7308V33.8462ZM32.3076 38.4616H7.69232V5.38461H9.19232V36.1538C9.19232 36.5786 9.5367 36.923 9.96154 36.923H29.9615C30.3863 36.923 30.7308 36.5786 30.7308 36.1538V5.38461H32.3077V38.4616H32.3076Z" fill="black"/>
<path d="M18.4077 32.9271C18.3985 32.8778 18.3831 32.8294 18.3639 32.7824C18.3446 32.7362 18.3208 32.6916 18.2931 32.6501C18.2654 32.6077 18.2331 32.5684 18.1977 32.533C18.1623 32.4976 18.1231 32.4654 18.0807 32.4376C18.0392 32.4092 17.9946 32.3861 17.9477 32.3669C17.9015 32.3476 17.8531 32.3323 17.8039 32.3223C17.5546 32.2723 17.2885 32.3546 17.11 32.533C17.0746 32.5684 17.0424 32.6076 17.0146 32.6501C16.987 32.6916 16.9631 32.7362 16.9439 32.7824C16.9246 32.8294 16.9093 32.8778 16.9 32.927C16.89 32.9762 16.8846 33.027 16.8846 33.077C16.8846 33.1269 16.89 33.1778 16.9 33.227C16.9093 33.2762 16.9246 33.3247 16.9439 33.3708C16.9631 33.4177 16.9869 33.4623 17.0146 33.5038C17.0423 33.5462 17.0746 33.5854 17.11 33.6208C17.2531 33.7638 17.4516 33.8462 17.6539 33.8462C17.7039 33.8462 17.7546 33.8408 17.8039 33.8308C17.8531 33.8216 17.9015 33.8062 17.9477 33.787C17.9946 33.7678 18.0393 33.744 18.0807 33.7162C18.1231 33.6886 18.1623 33.6563 18.1977 33.6208C18.2331 33.5854 18.2653 33.5462 18.2931 33.5039C18.3207 33.4623 18.3446 33.4177 18.3639 33.3708C18.3831 33.3247 18.3985 33.2763 18.4077 33.2271C18.4177 33.1778 18.4231 33.127 18.4231 33.0771C18.4231 33.0271 18.4177 32.9762 18.4077 32.9271Z" fill="black"/>
<path d="M26.4886 17.6649L24.3129 15.4892C24.1687 15.345 23.973 15.2639 23.769 15.2639C23.565 15.2639 23.3694 15.345 23.2251 15.4892L19.4176 19.2968L16.6979 16.5772C16.3976 16.2768 15.9105 16.2769 15.6101 16.5772L13.4344 18.7528C13.2902 18.897 13.2091 19.0927 13.2091 19.2967C13.2091 19.5007 13.2902 19.6963 13.4344 19.8406L18.8737 25.28C19.0179 25.4242 19.2136 25.5053 19.4176 25.5053C19.6216 25.5053 19.8173 25.4242 19.9615 25.28L26.4886 18.7528C26.7889 18.4525 26.7889 17.9654 26.4886 17.6649ZM19.4176 23.6481L15.0661 19.2967L16.1539 18.2089L18.8736 20.9285C19.174 21.2288 19.6611 21.2288 19.9614 20.9285L23.7689 17.121L24.8567 18.2088L19.4176 23.6481Z" fill="#F94020"/>
</svg>
