<svg width="40" height="40" viewBox="0 0 40 40" fill="none" xmlns="http://www.w3.org/2000/svg">
<path d="M36.1014 19.9767C36.0936 19.5548 35.7421 19.2111 35.3202 19.2189C34.8983 19.2267 34.5546 19.5783 34.5624 20.0001C34.5624 20.422 34.9061 20.7657 35.328 20.7657C35.7499 20.7657 36.0936 20.422 36.0936 20.0001L36.1014 19.9767Z" fill="black"/>
<path d="M20 25.6328C23.1411 25.6328 25.6875 23.0864 25.6875 19.9453C25.6875 16.8042 23.1411 14.2578 20 14.2578C16.8589 14.2578 14.3125 16.8042 14.3125 19.9453C14.3125 23.0864 16.8589 25.6328 20 25.6328Z" fill="#F94020"/>
<path d="M36.1484 8.20312L39.7734 4.57812C39.9922 4.35938 40.0547 4.03906 39.9453 3.75C39.8359 3.46875 39.5625 3.27344 39.2578 3.26562L36.8281 3.17188L36.7344 0.742188C36.7188 0.4375 36.5312 0.164062 36.25 0.0546875C35.9688 -0.0546875 35.6406 0.00781251 35.4219 0.226562L31.7969 3.85156C28.3594 1.32812 24.2969 0 20 0C14.6562 0 9.63281 2.07812 5.85938 5.85938C2.07812 9.63281 0 14.6562 0 20C0 25.3438 2.07812 30.3672 5.85938 34.1406C9.64062 37.9219 14.6562 40 20 40C25.3438 40 30.3672 37.9219 34.1406 34.1406C37.9141 30.3594 40 25.3438 40 20C40 15.7031 38.6719 11.6406 36.1484 8.20312ZM32.4141 5.41406L35.2656 2.5625L35.3203 3.94531C35.3359 4.34375 35.6562 4.67188 36.0625 4.6875L37.4453 4.74219L34.5938 7.59375L34.4062 7.78125L32.3125 7.69531L32.2344 5.60156L32.4141 5.41406ZM20 38.4609C9.82031 38.4609 1.53906 30.1797 1.53906 20C1.53906 9.82031 9.82031 1.53906 20 1.53906C23.8984 1.53906 27.6016 2.72656 30.7422 4.98438C30.7422 4.99219 30.7422 4.99219 30.7344 5C30.7266 5.01562 30.7188 5.03125 30.7188 5.04688C30.7188 5.05469 30.7109 5.07031 30.7109 5.07812C30.7031 5.09375 30.7031 5.10938 30.6953 5.125C30.6953 5.13281 30.6875 5.14844 30.6875 5.15625C30.6875 5.17188 30.6797 5.19531 30.6797 5.21094C30.6797 5.21875 30.6797 5.22656 30.6797 5.24219C30.6797 5.27344 30.6797 5.29687 30.6797 5.32812L30.7891 8.13281L30.3125 8.60938L28.6953 10.2266C26.3828 8.17188 23.3438 6.92188 20.0156 6.92188C12.8047 6.92188 6.9375 12.7891 6.9375 20C6.9375 27.2109 12.7891 33.0781 20 33.0781C27.2109 33.0781 33.0781 27.2109 33.0781 20C33.0781 16.6719 31.8281 13.6328 29.7734 11.3203L30.8359 10.2578C32.7422 12.3672 33.9688 14.9531 34.4062 17.7734C34.4609 18.1562 34.7891 18.4297 35.1641 18.4297C35.2031 18.4297 35.2422 18.4297 35.2812 18.4219C35.7031 18.3594 35.9922 17.9609 35.9219 17.5469C35.4453 14.4297 34.0781 11.5703 31.9688 9.22656L34.6797 9.33594C34.6875 9.33594 34.7031 9.33594 34.7109 9.33594C34.7266 9.33594 34.7344 9.33594 34.75 9.33594C34.7578 9.33594 34.7656 9.33594 34.7734 9.33594C34.7969 9.33594 34.8203 9.32812 34.8438 9.32812H34.8516C34.875 9.32031 34.9062 9.3125 34.9297 9.30469C34.9375 9.30469 34.9453 9.29688 34.9531 9.29688C34.9688 9.28906 34.9922 9.28125 35.0078 9.27344H35.0156C37.2734 12.4141 38.4609 16.1094 38.4609 20.0156C38.4609 30.1797 30.1797 38.4609 20 38.4609ZM19.4531 20.5469C19.6016 20.6953 19.7969 20.7734 20 20.7734C20.1953 20.7734 20.3906 20.6953 20.5469 20.5469L24.3125 16.7812C24.9844 17.6797 25.3828 18.7969 25.3828 20.0078C25.3828 22.9766 22.9688 25.3906 20 25.3906C17.0312 25.3906 14.6172 22.9688 14.6172 20C14.6172 17.0312 17.0312 14.6172 20 14.6172C21.2109 14.6172 22.3203 15.0156 23.2266 15.6875L19.4531 19.4531C19.1562 19.7578 19.1562 20.2422 19.4531 20.5469ZM24.3203 14.5938C23.1328 13.6484 21.6328 13.0781 20 13.0781C16.1797 13.0781 13.0781 16.1875 13.0781 20C13.0781 23.8125 16.1875 26.9219 20 26.9219C23.8125 26.9219 26.9219 23.8125 26.9219 20C26.9219 18.3672 26.3516 16.8672 25.4062 15.6797L28.6797 12.4062C30.4609 14.4375 31.5391 17.0938 31.5391 20C31.5391 26.3594 26.3594 31.5391 20 31.5391C13.6406 31.5391 8.46094 26.3594 8.46094 20C8.46094 13.6406 13.6406 8.46094 20 8.46094C22.9062 8.46094 25.5625 9.53906 27.5938 11.3203L24.3203 14.5938Z" fill="black"/>
</svg>
