<svg width="40" height="40" viewBox="0 0 40 40" fill="none" xmlns="http://www.w3.org/2000/svg">
<path d="M39.2308 5.38452H0.769219C0.344375 5.38452 0 5.7289 0 6.15374V10.7691V33.8461C0 34.2709 0.344375 34.6153 0.769219 34.6153H39.2308C39.6556 34.6153 40 34.2709 40 33.8461V10.7691V6.15374C40 5.7289 39.6556 5.38452 39.2308 5.38452ZM38.4616 33.0769H1.53844V11.5384H38.4615V33.0769H38.4616ZM38.4616 9.99991H1.53844V6.92296H38.4615V9.99991H38.4616Z" fill="black"/>
<path d="M29.2308 7.69238H27.6923C27.2675 7.69238 26.9231 8.03676 26.9231 8.4616C26.9231 8.88645 27.2675 9.23082 27.6923 9.23082H29.2308C29.6556 9.23082 30 8.88645 30 8.4616C30 8.03676 29.6556 7.69238 29.2308 7.69238Z" fill="black"/>
<path d="M33.0769 7.69238H31.5385C31.1137 7.69238 30.7693 8.03676 30.7693 8.4616C30.7693 8.88645 31.1137 9.23082 31.5385 9.23082H33.0769C33.5018 9.23082 33.8462 8.88645 33.8462 8.4616C33.8462 8.03676 33.5018 7.69238 33.0769 7.69238Z" fill="black"/>
<path d="M36.9231 7.69238H35.3847C34.9599 7.69238 34.6155 8.03676 34.6155 8.4616C34.6155 8.88645 34.9599 9.23082 35.3847 9.23082H36.9231C37.348 9.23082 37.6924 8.88645 37.6924 8.4616C37.6924 8.03676 37.348 7.69238 36.9231 7.69238Z" fill="black"/>
<path d="M36.1795 13.0769H3.82049C3.39564 13.0769 3.05127 13.4213 3.05127 13.8461V20C3.05127 20.4248 3.39564 20.7692 3.82049 20.7692H36.1795C36.6043 20.7692 36.9487 20.4248 36.9487 20V13.8461C36.9487 13.4213 36.6043 13.0769 36.1795 13.0769ZM35.4103 19.2307H4.58971V14.6153H35.4103V19.2307Z" fill="#F94020"/>
<path d="M12.3076 22.3076H3.84734C3.4225 22.3076 3.07812 22.652 3.07812 23.0768V30.7691C3.07812 31.1939 3.4225 31.5383 3.84734 31.5383H12.3077C12.7325 31.5383 13.0769 31.1939 13.0769 30.7691V23.0768C13.0769 22.6521 12.7325 22.3076 12.3076 22.3076ZM11.5384 30H4.61648V23.8461H11.5384V30Z" fill="#F94020"/>
<path d="M24.2303 22.3076H15.77C15.3451 22.3076 15.0007 22.652 15.0007 23.0768V30.7691C15.0007 31.1939 15.3451 31.5383 15.77 31.5383H24.2303C24.6551 31.5383 24.9995 31.1939 24.9995 30.7691V23.0768C24.9995 22.6521 24.6551 22.3076 24.2303 22.3076ZM23.461 30H16.5392V23.8461H23.461V30Z" fill="#F94020"/>
<path d="M36.1525 22.3076H27.6923C27.2675 22.3076 26.9231 22.652 26.9231 23.0768V30.7691C26.9231 31.1939 27.2675 31.5383 27.6923 31.5383H36.1526C36.5775 31.5383 36.9218 31.1939 36.9218 30.7691V23.0768C36.9218 22.6521 36.5774 22.3076 36.1525 22.3076ZM35.3833 30H28.4615V23.8461H35.3833V30Z" fill="#F94020"/>
</svg>
