<svg width="40" height="40" viewBox="0 0 40 40" fill="none" xmlns="http://www.w3.org/2000/svg">
<g clip-path="url(#clip0)">
<path d="M24.8668 7.36096C20.0404 2.53463 12.1874 2.53463 7.36096 7.36096C2.53463 12.1874 2.53463 20.0405 7.36096 24.8668C9.77416 27.28 12.944 28.4866 16.1138 28.4866C19.2837 28.4866 22.4535 27.2799 24.8667 24.8668C29.6931 20.0404 29.6931 12.1874 24.8668 7.36096ZM23.7789 23.7788C19.5524 28.0054 12.6754 28.0054 8.449 23.7788C4.22252 19.5524 4.22252 12.6753 8.449 8.44893C10.5623 6.33564 13.3381 5.279 16.114 5.279C18.8899 5.279 21.6657 6.33557 23.779 8.44893C28.0054 12.6753 28.0054 19.5524 23.7789 23.7788Z" fill="black"/>
<path d="M38.6873 32.3396L32.769 26.4212C32.6247 26.277 32.4291 26.1959 32.225 26.1959C32.0209 26.1959 31.8254 26.277 31.681 26.4212L29.5946 28.5076L28.0389 26.9519C33.7852 20.6358 33.6087 10.8211 27.5083 4.72059C24.4647 1.67707 20.418 0.000976562 16.1139 0.000976562C11.8098 0.000976562 7.7632 1.67715 4.71969 4.72059C1.67617 7.7641 0 11.8107 0 16.1149C0 20.419 1.67617 24.4657 4.71969 27.5092C7.76312 30.5526 11.8098 32.2288 16.1139 32.2288C20.1606 32.2288 23.9795 30.7468 26.9513 28.0402L28.5067 29.5956L26.4203 31.682C26.1199 31.9824 26.1199 32.4695 26.4203 32.7699L32.3385 38.6882C33.2138 39.5633 34.3632 40.0008 35.5129 40.0008C36.6624 40.0008 37.8121 39.5632 38.6873 38.6882C40.4376 36.9379 40.4376 34.0899 38.6873 32.3396ZM26.4203 26.4211C23.6674 29.1741 20.0072 30.6902 16.1139 30.6902C12.2206 30.6902 8.56055 29.174 5.80758 26.4211C3.05461 23.6682 1.53852 20.008 1.53852 16.1148C1.53852 12.2216 3.05461 8.56145 5.80758 5.80848C8.56047 3.05551 12.2207 1.53941 16.1139 1.53941C20.0071 1.53941 23.6673 3.05551 26.4203 5.80848C32.1032 11.4914 32.1032 20.7382 26.4203 26.4211ZM37.5993 37.6003C36.4487 38.7508 34.5768 38.7507 33.4265 37.6003L30.2492 34.423L31.2477 33.4245C31.5481 33.1241 31.5481 32.637 31.2477 32.3366C30.9474 32.0362 30.4605 32.0362 30.1598 32.3366L29.1613 33.3351L28.052 32.2259L30.138 30.1399C30.1382 30.1397 30.1383 30.1396 30.1384 30.1395C30.1386 30.1393 30.1387 30.1393 30.1388 30.1391L32.2248 28.0531L37.5992 33.4275C38.7498 34.5779 38.7498 36.4498 37.5993 37.6003Z" fill="black"/>
<path d="M32.8794 30.704C32.8439 30.6687 32.8047 30.6364 32.7623 30.6087C32.7208 30.581 32.6762 30.5571 32.63 30.5379C32.583 30.5187 32.5346 30.5033 32.4862 30.494C32.2362 30.4433 31.97 30.5256 31.7915 30.704C31.7561 30.7394 31.7237 30.7787 31.6962 30.821C31.6685 30.8626 31.6445 30.9072 31.6253 30.954C31.6061 31.0002 31.5908 31.0487 31.5816 31.0979C31.5716 31.1471 31.5662 31.1979 31.5662 31.2479C31.5662 31.2979 31.5716 31.3486 31.5816 31.3979C31.5908 31.4471 31.6061 31.4955 31.6253 31.5417C31.6445 31.5886 31.6684 31.6333 31.6962 31.6747C31.7237 31.7171 31.7561 31.7563 31.7915 31.7917C31.9345 31.9347 32.133 32.0171 32.3354 32.0171C32.3854 32.0171 32.4362 32.0117 32.4862 32.0017C32.5346 31.9925 32.5831 31.9771 32.63 31.9579C32.6762 31.9386 32.7208 31.9148 32.7623 31.8871C32.8047 31.8594 32.844 31.8271 32.8794 31.7917C33.0224 31.6486 33.1048 31.4501 33.1048 31.2478C33.1048 31.0454 33.0225 30.8472 32.8794 30.704Z" fill="black"/>
<path d="M22.5482 12.9432L20.3723 10.7675C20.0719 10.4671 19.5849 10.4671 19.2844 10.7675L15.4224 14.6295C14.7985 14.2153 14.0669 13.9926 13.3009 13.9926C12.2736 13.9926 11.3076 14.3927 10.5812 15.1192C9.85475 15.8456 9.45459 16.8116 9.45459 17.839C9.45459 18.8663 9.85467 19.8324 10.5812 20.5588C11.3311 21.3086 12.316 21.6835 13.3009 21.6835C14.2858 21.6835 15.2708 21.3086 16.0207 20.5588C16.7471 19.8323 17.1472 18.8663 17.1472 17.839C17.1472 17.073 16.9245 16.3414 16.5104 15.7174L17.6526 14.5753L18.7269 15.6496C18.8771 15.7998 19.074 15.8749 19.2708 15.8749C19.4677 15.8749 19.6645 15.7997 19.8148 15.6496C20.1152 15.3492 20.1152 14.8621 19.8148 14.5617L18.7405 13.4873L19.8284 12.3994L21.4603 14.0313C21.7608 14.3317 22.2477 14.3317 22.5483 14.0313C22.8486 13.7308 22.8486 13.2437 22.5482 12.9432ZM14.9328 19.4707C14.0331 20.3706 12.5689 20.3706 11.6691 19.4707C11.2332 19.0349 10.9932 18.4553 10.9932 17.8388C10.9932 17.2224 11.2332 16.6428 11.6691 16.207C12.105 15.771 12.6846 15.531 13.301 15.531C13.9174 15.531 14.497 15.7711 14.9329 16.207C15.3688 16.6428 15.6088 17.2224 15.6088 17.8388C15.6087 18.4554 15.3687 19.0349 14.9328 19.4707Z" fill="#F94020"/>
</g>
<defs>
<clipPath id="clip0">
<rect width="40" height="40" fill="white"/>
</clipPath>
</defs>
</svg>
