<svg width="40" height="40" viewBox="0 0 40 40" fill="none" xmlns="http://www.w3.org/2000/svg">
<path d="M36.1538 5H3.84612C3.42128 5 3.0769 5.34438 3.0769 5.76922V24.2308C3.0769 24.6556 3.42128 25 3.84612 25H36.1538C36.5786 25 36.923 24.6556 36.923 24.2308V5.76922C36.923 5.34438 36.5786 5 36.1538 5ZM35.3845 20.3846H30.7692C30.3443 20.3846 29.9999 20.729 29.9999 21.1538C29.9999 21.5787 30.3443 21.923 30.7692 21.923H35.3845V23.4615H4.61534V6.53844H35.3845V20.3846Z" fill="black"/>
<path d="M39.2308 1.9231H0.769219C0.344375 1.9231 0 2.26747 0 2.69239V27.3078C0 27.7326 0.344375 28.077 0.769219 28.077H15.3846V33.3847H12.3077C11.8828 33.3847 11.5384 33.729 11.5384 34.1539V37.3077C11.5384 37.7325 11.8828 38.0769 12.3077 38.0769H27.6923C28.1171 38.0769 28.4615 37.7325 28.4615 37.3077V34.1539C28.4615 33.729 28.1171 33.3847 27.6923 33.3847H24.6153V28.077H39.2307C39.6555 28.077 39.9999 27.7326 39.9999 27.3078V2.69239C40 2.26747 39.6556 1.9231 39.2308 1.9231ZM26.7308 34.9231H26.923V36.5385H13.077V34.9231H26.7308ZM16.923 33.3847V28.077H23.0769V33.3847H16.923ZM38.4616 26.5385H1.53844V3.46161H38.4615V26.5385H38.4616Z" fill="black"/>
<path d="M29.2153 21.0038C29.2061 20.9546 29.1907 20.9062 29.1715 20.86C29.1523 20.8131 29.1285 20.7685 29.1007 20.727C29.0731 20.6846 29.0407 20.6454 29.0053 20.61C28.97 20.5746 28.9307 20.5424 28.8884 20.5146C28.8468 20.487 28.8022 20.4631 28.756 20.4438C28.7091 20.4246 28.6607 20.4092 28.6114 20.4C28.513 20.38 28.4099 20.38 28.3114 20.4C28.2622 20.4092 28.2138 20.4246 28.1668 20.4438C28.1207 20.4631 28.076 20.4869 28.0345 20.5146C27.9921 20.5423 27.9529 20.5746 27.9175 20.61C27.8821 20.6454 27.8499 20.6846 27.8221 20.727C27.7945 20.7685 27.7706 20.8131 27.7514 20.86C27.7321 20.9062 27.7167 20.9546 27.7075 21.0038C27.6975 21.0531 27.6921 21.1038 27.6921 21.1538C27.6921 21.2038 27.6975 21.2546 27.7075 21.3038C27.7167 21.3531 27.7321 21.4015 27.7514 21.4485C27.7706 21.4946 27.7944 21.5392 27.8221 21.5808C27.8498 21.6231 27.8821 21.6624 27.9175 21.6978C27.9529 21.7331 27.9921 21.7654 28.0345 21.7931C28.076 21.8208 28.1207 21.8447 28.1668 21.8639C28.2138 21.8831 28.2622 21.8985 28.3114 21.9078C28.3607 21.9178 28.4114 21.9231 28.4614 21.9231C28.5114 21.9231 28.5622 21.9178 28.6114 21.9078C28.6607 21.8985 28.7091 21.8831 28.756 21.8639C28.8022 21.8447 28.8468 21.8209 28.8884 21.7931C28.9307 21.7655 28.97 21.7331 29.0053 21.6978C29.0407 21.6624 29.073 21.6231 29.1007 21.5808C29.1284 21.5392 29.1523 21.4946 29.1715 21.4485C29.1907 21.4015 29.2061 21.3531 29.2153 21.3038C29.2253 21.2546 29.2307 21.2038 29.2307 21.1538C29.2307 21.1038 29.2253 21.0531 29.2153 21.0038Z" fill="black"/>
<path d="M16.0248 19.3963L13.2324 15.2077L16.0249 11.019C16.2605 10.6655 16.1649 10.1879 15.8115 9.95227C15.4581 9.71664 14.9805 9.81211 14.7448 10.1655L11.6678 14.7809C11.4955 15.0393 11.4955 15.3759 11.6678 15.6343L14.7448 20.2497C14.893 20.472 15.137 20.5923 15.3856 20.5923C15.5322 20.5923 15.6804 20.5504 15.8116 20.463C16.1649 20.2274 16.2605 19.7498 16.0248 19.3963Z" fill="#F94020"/>
<path d="M28.3324 14.781L25.2555 10.1656C25.0199 9.81209 24.5423 9.71662 24.1888 9.95232C23.8353 10.1879 23.7398 10.6655 23.9755 11.019L26.768 15.2077L23.9755 19.3964C23.7398 19.7498 23.8353 20.2275 24.1888 20.4631C24.3199 20.5505 24.4681 20.5924 24.6148 20.5924C24.8633 20.5924 25.1074 20.4722 25.2556 20.2498L28.3325 15.6344C28.5047 15.376 28.5047 15.0394 28.3324 14.781Z" fill="#F94020"/>
<path d="M21.7818 9.86249C21.3789 9.72804 20.9431 9.94585 20.8088 10.3491L17.7318 19.5798C17.5975 19.9828 17.8153 20.4184 18.2184 20.5528C18.2991 20.5798 18.3811 20.5925 18.4618 20.5925C18.7839 20.5925 19.084 20.3887 19.1914 20.0662L22.2683 10.8355C22.4026 10.4325 22.1848 9.99694 21.7818 9.86249Z" fill="#F94020"/>
</svg>
