<svg width="40" height="40" viewBox="0 0 40 40" fill="none" xmlns="http://www.w3.org/2000/svg">
<g clip-path="url(#clip0)">
<path d="M33.0457 17.1138V13.9511C33.0457 11.4267 31.8354 9.10836 29.7878 7.66539V0.769219C29.7878 0.344453 29.4434 0 29.0185 0H10.919C10.4942 0 10.1498 0.344453 10.1498 0.769219V7.66547C8.10214 9.10836 6.89191 11.4268 6.89191 13.9512V17.1227C3.01175 17.7205 0.0311279 21.0824 0.0311279 25.1273V28.1026C0.0311279 32.1738 3.05082 35.5525 6.96792 36.118C7.32566 37.9102 8.91058 39.265 10.8064 39.265H16.1244C16.1424 39.6738 16.4786 40.0001 16.8919 40.0001H18.4303C19.7028 40.0001 20.738 38.9648 20.738 37.6924C20.738 36.4199 19.7028 35.3848 18.4303 35.3848H16.8919C16.4671 35.3848 16.1227 35.7292 16.1227 36.154V37.7266H10.8064C9.79621 37.7266 8.93175 37.0926 8.58871 36.2018H11.5696C11.9945 36.2018 12.3389 35.8573 12.3389 35.4326V17.7974C12.3389 17.3727 11.9945 17.0282 11.5696 17.0282H8.43042V13.9513C8.43042 12.3294 9.05527 10.8138 10.1499 9.68156V14.2988C10.1499 14.7236 10.4943 15.068 10.9191 15.068H15.1439L19.4481 19.0278C19.5953 19.1633 19.7821 19.2309 19.9689 19.2309C20.1558 19.2309 20.3425 19.1633 20.4898 19.0278L24.7939 15.068H29.0188C29.4436 15.068 29.788 14.7236 29.788 14.2988V9.68156C30.8826 10.8138 31.5075 12.3294 31.5075 13.9513V17.0282H28.4305C28.0057 17.0282 27.6613 17.3727 27.6613 17.7974V35.4326C27.6613 35.8573 28.0057 36.2018 28.4305 36.2018H31.8697C36.3357 36.2018 39.9689 32.5686 39.9689 28.1027V25.1273C39.9688 21.0608 36.9561 17.6852 33.0457 17.1138ZM17.661 36.923H18.4303C18.8544 36.923 19.1995 37.2681 19.1995 37.6923C19.1995 38.1164 18.8544 38.4615 18.4303 38.4615H17.661V36.923ZM10.8003 18.5666V34.6633H8.13027C8.08605 34.6633 8.04238 34.6608 7.99831 34.66C7.89636 34.6101 7.78222 34.5813 7.66105 34.5813C7.57378 34.5813 7.49035 34.5966 7.41222 34.6233C4.13128 34.2644 1.56957 31.4775 1.56957 28.1027V25.1273C1.56957 21.9333 3.86457 19.2663 6.89191 18.6855V26.1539C6.89191 26.5787 7.23628 26.9231 7.66113 26.9231C8.08597 26.9231 8.43035 26.5787 8.43035 26.1539V18.5666H10.8003ZM28.2493 13.5295H24.4937C24.3008 13.5295 24.1149 13.6019 23.9728 13.7326L19.9688 17.4164L15.9647 13.7327C15.8227 13.602 15.6369 13.5295 15.4439 13.5295H11.6882V1.53844H28.2493V13.5295ZM38.4303 28.1026C38.4303 31.3186 36.1036 33.9996 33.0457 34.5556V27.6923C33.0457 27.2676 32.7013 26.9231 32.2764 26.9231C31.8516 26.9231 31.5072 27.2676 31.5072 27.6923V34.6633H29.1996V18.5666H31.8696C35.4871 18.5666 38.4303 21.5097 38.4303 25.1273V28.1026H38.4303Z" fill="black"/>
<path d="M8.41481 28.3117C8.40481 28.2625 8.3902 28.2139 8.37098 28.167C8.35176 28.1207 8.32793 28.0762 8.3002 28.0346C8.27254 27.9923 8.2402 27.953 8.20481 27.9176C8.16942 27.8822 8.1302 27.8499 8.08785 27.8222C8.04629 27.7946 8.00168 27.7707 7.95551 27.7514C7.90856 27.7322 7.86012 27.7168 7.8109 27.7077C7.71246 27.6876 7.61012 27.6876 7.5109 27.7077C7.46168 27.7168 7.41324 27.7322 7.36629 27.7514C7.32012 27.7707 7.27551 27.7946 7.23395 27.8222C7.1916 27.8499 7.15238 27.8822 7.11699 27.9176C7.0816 27.953 7.04934 27.9922 7.0216 28.0346C6.99395 28.0762 6.97004 28.1207 6.95082 28.167C6.9316 28.2139 6.91699 28.2624 6.90699 28.3116C6.89699 28.3608 6.8916 28.4116 6.8916 28.4616C6.8916 28.5115 6.89699 28.5624 6.90699 28.6116C6.91699 28.6608 6.9316 28.7093 6.95082 28.7562C6.97004 28.8024 6.99387 28.847 7.0216 28.8885C7.04926 28.9309 7.0816 28.9701 7.11699 29.0055C7.26004 29.1485 7.45856 29.231 7.66082 29.231C7.71082 29.231 7.7616 29.2263 7.81082 29.2164C7.86004 29.2064 7.90848 29.191 7.95543 29.1718C8.0016 29.1525 8.04621 29.1287 8.08778 29.101C8.13012 29.0734 8.16934 29.041 8.20473 29.0056C8.24012 28.9702 8.27239 28.931 8.30012 28.8886C8.32778 28.8471 8.35168 28.8025 8.3709 28.7563C8.39012 28.7093 8.40473 28.6609 8.41473 28.6117C8.42473 28.5624 8.43012 28.5116 8.43012 28.4617C8.4302 28.4117 8.42481 28.3608 8.41481 28.3117Z" fill="black"/>
<path d="M33.0303 25.2599C33.0211 25.2107 33.0057 25.1622 32.9865 25.1161C32.9672 25.0699 32.9441 25.0253 32.9157 24.9831C32.888 24.9416 32.8557 24.9015 32.8203 24.8661C32.7849 24.8307 32.7457 24.7984 32.7033 24.7707C32.6618 24.7431 32.6172 24.7192 32.571 24.6999C32.524 24.6807 32.4756 24.6662 32.4272 24.6561C32.3272 24.6361 32.2248 24.6361 32.1264 24.6561C32.0772 24.6662 32.0287 24.6807 31.9818 24.6999C31.9356 24.7192 31.891 24.7431 31.8494 24.7707C31.8071 24.7984 31.7679 24.8307 31.7325 24.8661C31.6971 24.9015 31.6648 24.9415 31.6363 24.9831C31.6086 25.0255 31.5855 25.0701 31.5663 25.1161C31.5471 25.1621 31.5317 25.2107 31.5225 25.2599C31.5125 25.3092 31.5071 25.3599 31.5071 25.4099C31.5071 25.4599 31.5125 25.5107 31.5225 25.5607C31.5317 25.6092 31.5471 25.6577 31.5663 25.7046C31.5855 25.7507 31.6093 25.7953 31.6371 25.8369C31.6647 25.8792 31.6971 25.9185 31.7325 25.9539C31.7679 25.9892 31.8071 26.0215 31.8494 26.05C31.891 26.0777 31.9356 26.1016 31.9818 26.1208C32.0287 26.14 32.0772 26.1546 32.1264 26.1646C32.1756 26.1746 32.2264 26.1793 32.2764 26.1793C32.3264 26.1793 32.3772 26.1746 32.4272 26.1646C32.4756 26.1546 32.5241 26.14 32.571 26.1208C32.6172 26.1016 32.6618 26.0778 32.7033 26.05C32.7457 26.0216 32.7849 25.9892 32.8203 25.9539C32.8557 25.9185 32.8879 25.8792 32.9157 25.8369C32.9433 25.7953 32.9672 25.7507 32.9865 25.7046C33.0057 25.6576 33.0203 25.6092 33.0303 25.5607C33.0403 25.5107 33.0457 25.4599 33.0457 25.4099C33.0457 25.3599 33.0403 25.3091 33.0303 25.2599Z" fill="black"/>
<path d="M19.9688 3.68774H13.815C13.3902 3.68774 13.0458 4.0322 13.0458 4.45696C13.0458 4.88173 13.3902 5.22618 13.815 5.22618H19.9688C20.3937 5.22618 20.7381 4.88173 20.7381 4.45696C20.7381 4.03227 20.3937 3.68774 19.9688 3.68774Z" fill="#F94020"/>
<path d="M26.1227 6.76489H13.815C13.3902 6.76489 13.0458 7.10935 13.0458 7.53411C13.0458 7.95888 13.3902 8.30333 13.815 8.30333H26.1227C26.5475 8.30333 26.8919 7.95888 26.8919 7.53411C26.8919 7.10935 26.5475 6.76489 26.1227 6.76489Z" fill="#F94020"/>
<path d="M26.1227 9.8418H13.815C13.3902 9.8418 13.0458 10.1863 13.0458 10.611C13.0458 11.0358 13.3902 11.3802 13.815 11.3802H26.1227C26.5475 11.3802 26.8919 11.0358 26.8919 10.611C26.8919 10.1863 26.5475 9.8418 26.1227 9.8418Z" fill="#F94020"/>
</g>
<defs>
<clipPath id="clip0">
<rect width="40" height="40" fill="white"/>
</clipPath>
</defs>
</svg>
