<svg width="50" height="50" viewBox="0 0 50 50" fill="none" xmlns="http://www.w3.org/2000/svg">
<path d="M25 0C14.3962 0 5.76923 8.62694 5.76923 19.2307C5.76923 25.0664 8.3827 30.3026 12.5 33.8325V49.0384C12.5 49.3345 12.6364 49.6141 12.8698 49.7963C13.1032 49.9786 13.4076 50.043 13.6948 49.9712L25 47.1449L36.3051 49.9713C36.3823 49.9905 36.4605 50 36.5384 50C36.7506 50 36.9594 49.9297 37.1301 49.7964C37.3635 49.6142 37.4999 49.3346 37.4999 49.0385V33.8325C41.6172 30.3027 44.2307 25.0665 44.2307 19.2307C44.2308 8.62694 35.6038 0 25 0ZM25 45.1922C24.9217 45.1922 24.8433 45.2018 24.7668 45.2209L14.423 47.8067V35.291C15.1229 35.7516 15.8514 36.1645 16.6027 36.5286C16.6713 36.5621 16.7403 36.5947 16.8093 36.6273C16.8421 36.6427 16.8748 36.6579 16.9075 36.6732C18.8625 37.5838 20.9947 38.175 23.2373 38.3798C23.243 38.3804 23.2487 38.3809 23.2544 38.3814C23.4397 38.3981 23.6258 38.4122 23.8126 38.4237C23.8589 38.4266 23.9051 38.4299 23.9516 38.4325C24.0148 38.4359 24.0783 38.4385 24.1417 38.4413C24.2325 38.4453 24.3233 38.449 24.4141 38.4517C24.4649 38.4532 24.5157 38.4548 24.5666 38.4559C24.7109 38.4591 24.8553 38.4614 24.9999 38.4614C25.1445 38.4614 25.2888 38.4591 25.4332 38.4559C25.484 38.4547 25.5348 38.4531 25.5856 38.4517C25.6765 38.4489 25.7674 38.4453 25.8582 38.4413C25.9215 38.4385 25.9849 38.436 26.0481 38.4325C26.0947 38.4299 26.1414 38.4265 26.188 38.4236C26.3745 38.4121 26.5601 38.3981 26.7451 38.3814C26.7509 38.3808 26.7568 38.3803 26.7626 38.3797C28.4948 38.2215 30.161 37.833 31.7307 37.2448V40.3846C31.7307 40.9155 32.1613 41.3461 32.6922 41.3461C33.2232 41.3461 33.6537 40.9155 33.6537 40.3846V36.4017C34.3144 36.0692 34.9569 35.699 35.5768 35.2911V47.8068L25.2333 45.2209C25.1566 45.2019 25.0783 45.1922 25 45.1922ZM32.5607 34.7973C30.6655 35.7165 28.6082 36.2882 26.4986 36.4728C26.491 36.4734 26.4833 36.4741 26.4758 36.4748C26.3743 36.4836 26.2726 36.4909 26.1709 36.4979C26.128 36.5008 26.085 36.5035 26.0419 36.5061C25.9614 36.511 25.8808 36.5154 25.8001 36.5192C25.7282 36.5224 25.656 36.525 25.5838 36.5275C25.525 36.5295 25.4662 36.5318 25.4073 36.5332C25.2719 36.5365 25.1362 36.5384 25.0001 36.5384C24.8641 36.5384 24.7284 36.5364 24.5931 36.5332C24.5341 36.5318 24.4754 36.5295 24.4165 36.5275C24.3444 36.525 24.2721 36.5225 24.2002 36.5192C24.1196 36.5155 24.0389 36.511 23.9584 36.5061C23.9154 36.5034 23.8724 36.5008 23.8294 36.4979C23.7276 36.4909 23.6259 36.4835 23.5243 36.4748C23.5168 36.4741 23.5093 36.4735 23.502 36.4728C21.3892 36.2881 19.3293 35.7149 17.4317 34.7934C11.6708 31.9803 7.69256 26.0617 7.69256 19.2307C7.69237 9.68729 15.4565 1.92304 25 1.92304C34.5434 1.92304 42.3076 9.68729 42.3076 19.2307C42.3076 26.0648 38.3258 31.9858 32.5607 34.7973Z" fill="black"/>
<path d="M24.9999 3.81409C16.4992 3.81409 9.58337 10.7299 9.58337 19.2307C9.58337 27.7314 16.4993 34.6472 24.9999 34.6472C33.5006 34.6472 40.4165 27.7314 40.4165 19.2307C40.4165 10.7299 33.5007 3.81409 24.9999 3.81409ZM24.9999 32.7242C17.5596 32.7242 11.5064 26.6711 11.5064 19.2307C11.5064 11.7902 17.5596 5.73713 24.9999 5.73713C32.4403 5.73713 38.4935 11.7902 38.4935 19.2307C38.4935 26.6711 32.4404 32.7242 24.9999 32.7242Z" fill="black"/>
<path d="M33.5629 17.2165C33.4497 16.8684 33.1489 16.6146 32.7868 16.562L28.002 15.8668L25.8623 11.5311C25.7002 11.2029 25.366 10.9951 25 10.9951C24.6339 10.9951 24.2997 11.2029 24.1377 11.5311L21.9979 15.8668L17.2132 16.562C16.851 16.6147 16.5502 16.8684 16.437 17.2165C16.3238 17.5645 16.4182 17.9467 16.6803 18.2021L20.1425 21.5769L19.3253 26.3425C19.2633 26.7032 19.4116 27.0677 19.7078 27.2829C20.0039 27.4982 20.3964 27.5263 20.7204 27.3561L25 25.1062L29.2795 27.3561C29.4202 27.43 29.5739 27.4665 29.7268 27.4665C29.9261 27.4665 30.1245 27.4045 30.2921 27.2828C30.5882 27.0676 30.7366 26.7032 30.6747 26.3424L29.8575 21.5768L33.3197 18.202C33.5818 17.9468 33.676 17.5646 33.5629 17.2165ZM28.153 20.5528C27.9264 20.7738 27.823 21.092 27.8764 21.404L28.4498 24.7473L25.4472 23.1688C25.3072 23.0952 25.1535 23.0585 24.9999 23.0585C24.8462 23.0585 24.6924 23.0953 24.5525 23.1688L21.5499 24.7473L22.1233 21.404C22.1768 21.0921 22.0734 20.7738 21.8467 20.5528L19.4177 18.1851L22.7747 17.6974C23.0878 17.6517 23.3586 17.4551 23.4986 17.1713L25 14.1293L26.5011 17.1712C26.6413 17.455 26.9119 17.6516 27.225 17.6973L30.5821 18.185L28.153 20.5528Z" fill="#F94020"/>
<path d="M33.6346 43.0818C33.6231 43.0202 33.6037 42.9596 33.5797 42.902C33.5557 42.8433 33.5259 42.7876 33.4912 42.7358C33.4568 42.6827 33.4163 42.6337 33.372 42.5895C33.3278 42.5452 33.2787 42.5049 33.2258 42.4702C33.1739 42.4347 33.1181 42.4058 33.0595 42.3818C33.0018 42.3577 32.9413 42.3385 32.8798 42.326C32.7558 42.302 32.6288 42.302 32.5048 42.326C32.4433 42.3385 32.3827 42.3577 32.3241 42.3818C32.2662 42.4058 32.2106 42.4347 32.1586 42.4702C32.1056 42.5048 32.0566 42.5452 32.0123 42.5895C31.9681 42.6337 31.9278 42.6827 31.8921 42.7358C31.8576 42.7877 31.8286 42.8434 31.8046 42.902C31.7806 42.9597 31.7614 43.0202 31.7489 43.0818C31.7364 43.1433 31.7307 43.2068 31.7307 43.2693C31.7307 43.5222 31.8335 43.7703 32.0124 43.949C32.0567 43.9932 32.1057 44.0336 32.1587 44.0682C32.2107 44.1028 32.2663 44.1327 32.3242 44.1567C32.3828 44.1807 32.4434 44.1999 32.5049 44.2115C32.5664 44.224 32.6299 44.2307 32.6924 44.2307C32.7548 44.2307 32.8184 44.224 32.8799 44.2115C32.9414 44.1999 33.002 44.1807 33.0596 44.1567C33.1183 44.1327 33.1741 44.1029 33.2259 44.0682C33.2788 44.0337 33.3279 43.9932 33.3721 43.949C33.4164 43.9047 33.4568 43.8557 33.4913 43.8028C33.5259 43.7508 33.5558 43.6951 33.5798 43.6365C33.6038 43.5787 33.6231 43.5183 33.6346 43.4568C33.6471 43.3952 33.6538 43.3317 33.6538 43.2693C33.6538 43.2068 33.6471 43.1432 33.6346 43.0818Z" fill="black"/>
</svg>
