<svg width="50" height="50" viewBox="0 0 50 50" fill="none" xmlns="http://www.w3.org/2000/svg">
<path d="M49.0385 39.9038H47.1154V12.0166C48.2823 11.1385 49.0385 9.74253 49.0385 8.173C49.0385 5.52202 46.8817 3.36528 44.2308 3.36528C41.5798 3.36528 39.423 5.52202 39.423 8.173C39.423 9.38267 39.8731 10.4886 40.6135 11.3345L37.8672 16.8268H33.2865L30.7259 11.7056C31.3623 10.6779 31.7308 9.46782 31.7308 8.1729C31.7308 4.46157 28.7113 1.44214 25 1.44214C21.2887 1.44214 18.2692 4.46157 18.2692 8.1729C18.2692 9.46782 18.6377 10.6779 19.274 11.7056L16.7134 16.8268H12.1327L9.38652 11.3345C10.1269 10.4886 10.577 9.38267 10.577 8.173C10.577 5.52202 8.42021 3.36528 5.76924 3.36528C3.11826 3.36528 0.961523 5.52202 0.961523 8.173C0.961523 9.74253 1.71768 11.1385 2.88457 12.0166V39.9038H0.961523C0.430566 39.9038 0 40.3343 0 40.8653V47.596C0 48.127 0.430566 48.5576 0.961523 48.5576H49.0385C49.5694 48.5576 50 48.127 50 47.596V40.8653C50 40.3343 49.5694 39.9038 49.0385 39.9038ZM44.2308 5.28843C45.8213 5.28843 47.1153 6.58247 47.1153 8.173C47.1153 9.24946 46.5223 10.1894 45.6461 10.685C45.6081 10.7065 45.5697 10.727 45.5309 10.7466C45.5191 10.7526 45.5076 10.7588 45.4958 10.7647C45.4438 10.7901 45.3912 10.8141 45.3378 10.8364C45.3322 10.8387 45.3266 10.8407 45.321 10.843C45.2719 10.8631 45.2222 10.8818 45.172 10.8991C45.1621 10.9024 45.1522 10.9058 45.1424 10.909C45.09 10.9264 45.0374 10.9426 44.9842 10.957C44.9812 10.9579 44.978 10.9588 44.9749 10.9596C44.86 10.9903 44.743 11.0135 44.6249 11.0298C44.6118 11.0317 44.5986 11.0332 44.5854 11.0348C44.5402 11.0405 44.4947 11.0448 44.4493 11.0484C44.4344 11.0495 44.4196 11.0509 44.4047 11.0517C44.3468 11.0552 44.2889 11.0575 44.2307 11.0575C44.185 11.0575 44.1396 11.0561 44.0944 11.0541C44.0757 11.0532 44.057 11.0516 44.0383 11.0504C44.0128 11.0487 43.9873 11.047 43.962 11.0446C43.9381 11.0423 43.9142 11.0396 43.8903 11.0368C43.8713 11.0345 43.8522 11.0322 43.8333 11.0294C43.806 11.0256 43.7788 11.0215 43.7517 11.0169C43.7376 11.0146 43.7236 11.012 43.7096 11.0094C43.6792 11.0038 43.6488 10.998 43.6186 10.9915C43.6104 10.9897 43.6023 10.9877 43.5942 10.9859C43.4798 10.9599 43.3671 10.9274 43.2568 10.8879C43.2565 10.8878 43.2562 10.8877 43.2559 10.8876C43.2306 10.8785 43.2057 10.8686 43.1807 10.8588C43.163 10.8519 43.1452 10.8452 43.1277 10.8379C43.1093 10.8302 43.091 10.8221 43.0728 10.8141C43.0479 10.8032 43.023 10.7921 42.9985 10.7804C42.9861 10.7746 42.9738 10.7685 42.9615 10.7625C42.9295 10.7467 42.8977 10.7305 42.8663 10.7136C42.8609 10.7107 42.8556 10.7079 42.8502 10.7049C41.9549 10.2149 41.3463 9.26382 41.3463 8.173C41.3462 6.58247 42.6402 5.28843 44.2308 5.28843ZM25 3.36538C27.651 3.36538 29.8077 5.52212 29.8077 8.1731C29.8077 10.4865 28.1652 12.4231 25.9853 12.8789C25.9734 12.8813 25.9617 12.8837 25.95 12.8861C25.8877 12.8986 25.8249 12.9097 25.7617 12.9199C25.7324 12.9245 25.7028 12.9287 25.6733 12.9328C25.6223 12.94 25.571 12.9468 25.5194 12.9524C25.4727 12.9574 25.4254 12.961 25.3783 12.9646C25.3404 12.9676 25.3027 12.9711 25.2646 12.9733C25.1769 12.978 25.0888 12.9809 25.0001 12.9809C24.9114 12.9809 24.8233 12.978 24.7356 12.9733C24.6976 12.9712 24.6599 12.9676 24.622 12.9646C24.5749 12.961 24.5276 12.9573 24.4809 12.9524C24.4292 12.9468 24.3779 12.94 24.327 12.9328C24.2975 12.9287 24.2679 12.9245 24.2386 12.9199C24.1754 12.9098 24.1126 12.8987 24.0503 12.8861C24.0385 12.8837 24.0268 12.8813 24.015 12.8789C21.835 12.4231 20.1925 10.4865 20.1925 8.1731C20.1923 5.52202 22.349 3.36538 25 3.36538ZM10.6783 18.2186C10.8413 18.5442 11.1742 18.75 11.5384 18.75H17.3076C17.6719 18.75 18.0047 18.5442 18.1676 18.2184L20.6291 13.2956C21.576 14.1087 22.7252 14.6355 23.9666 14.8244C23.9726 14.8253 23.9784 14.8263 23.9843 14.8272C24.0802 14.8416 24.1766 14.8538 24.2734 14.864C24.293 14.8662 24.3125 14.8685 24.3321 14.8705C24.419 14.879 24.5064 14.8853 24.5941 14.8905C24.6191 14.892 24.644 14.8942 24.6691 14.8954C24.7789 14.9006 24.8892 14.9038 24.9999 14.9038C25.1106 14.9038 25.2209 14.9006 25.3307 14.8954C25.3558 14.8941 25.3807 14.8919 25.4057 14.8905C25.4934 14.8853 25.5808 14.879 25.6677 14.8705C25.6873 14.8685 25.7067 14.8662 25.7264 14.864C25.8232 14.8538 25.9196 14.8416 26.0155 14.8272C26.0215 14.8263 26.0273 14.8253 26.0332 14.8244C27.2746 14.6353 28.4237 14.1086 29.3707 13.2956L31.8322 18.2184C31.9951 18.5442 32.328 18.75 32.6922 18.75H38.4614C38.8257 18.75 39.1585 18.5442 39.3214 18.2185L42.172 12.5173C42.187 12.5245 42.2024 12.5304 42.2176 12.5374C42.2784 12.5656 42.3397 12.5928 42.402 12.6185C42.4162 12.6244 42.4305 12.6297 42.4448 12.6354C42.5121 12.6625 42.5801 12.6881 42.6488 12.7122C42.6604 12.7162 42.6721 12.7201 42.6837 12.724C42.7553 12.7483 42.8273 12.771 42.9003 12.792C42.9105 12.7951 42.9209 12.7979 42.9312 12.8008C43.0047 12.8215 43.079 12.8405 43.1539 12.8577C43.1645 12.8601 43.1751 12.8626 43.1856 12.865C43.2593 12.8813 43.3335 12.8959 43.4084 12.9089C43.4206 12.9111 43.4327 12.9134 43.4449 12.9155C43.5169 12.9274 43.5896 12.9374 43.6625 12.9459C43.6774 12.9478 43.6922 12.95 43.7071 12.9516C43.7775 12.9593 43.8484 12.965 43.9197 12.9695C43.9364 12.9706 43.9531 12.9724 43.9698 12.9733C44.0562 12.9779 44.143 12.9806 44.2304 12.9806C44.3114 12.9806 44.3924 12.9786 44.4731 12.9745C44.718 12.9623 44.9579 12.9316 45.1919 12.8839V39.9039H4.80771V12.884C5.0417 12.9317 5.28164 12.9624 5.52646 12.9746C5.60723 12.9787 5.68818 12.9807 5.76924 12.9807C5.85674 12.9807 5.94355 12.978 6.02979 12.9734C6.04648 12.9725 6.06318 12.9707 6.07988 12.9696C6.15117 12.9651 6.22207 12.9594 6.29248 12.9517C6.30742 12.95 6.32217 12.9478 6.33711 12.946C6.41016 12.9374 6.48272 12.9274 6.55469 12.9156C6.5669 12.9135 6.579 12.9112 6.59121 12.909C6.66611 12.896 6.74033 12.8814 6.81396 12.8651C6.82451 12.8627 6.83516 12.8602 6.8457 12.8578C6.9207 12.8406 6.99492 12.8216 7.06846 12.8009C7.07871 12.798 7.08906 12.7951 7.09932 12.7921C7.17227 12.771 7.24453 12.7484 7.31592 12.7241C7.32754 12.7202 7.33916 12.7163 7.35078 12.7123C7.41953 12.6882 7.4875 12.6625 7.55479 12.6355C7.56904 12.6298 7.5834 12.6245 7.59766 12.6186C7.65977 12.5929 7.72109 12.5656 7.78203 12.5375C7.79717 12.5305 7.8126 12.5245 7.82764 12.5174L10.6783 18.2186ZM5.76924 5.28843C7.35986 5.28843 8.65381 6.58247 8.65381 8.173C8.65381 9.26372 8.04512 10.2149 7.1498 10.7051C7.14453 10.7081 7.13916 10.7109 7.13379 10.7138C7.10244 10.7307 7.07061 10.7469 7.03848 10.7626C7.02617 10.7687 7.01387 10.7748 7.00146 10.7806C6.97695 10.7922 6.95215 10.8033 6.92725 10.8143C6.90898 10.8223 6.89072 10.8304 6.87227 10.8381C6.85479 10.8455 6.83701 10.8522 6.81924 10.859C6.79424 10.8688 6.76934 10.8788 6.74404 10.8878C6.74375 10.8879 6.74336 10.888 6.74307 10.8881C6.63291 10.9277 6.52012 10.9601 6.40566 10.9861C6.39756 10.9879 6.38955 10.9899 6.38135 10.9917C6.35117 10.9983 6.3208 11.0041 6.29043 11.0096C6.27637 11.0123 6.2624 11.0148 6.24824 11.0172C6.22109 11.0218 6.19395 11.0259 6.1667 11.0297C6.14775 11.0324 6.12871 11.0347 6.10967 11.0371C6.08584 11.0399 6.06191 11.0426 6.03799 11.0449C6.0127 11.0472 5.98721 11.049 5.96172 11.0507C5.94297 11.052 5.92432 11.0536 5.90557 11.0543C5.86035 11.0563 5.81504 11.0577 5.76934 11.0577C5.71113 11.0577 5.65322 11.0554 5.59531 11.0519C5.58037 11.051 5.56553 11.0496 5.55068 11.0486C5.50508 11.0452 5.45977 11.0407 5.41455 11.035C5.40146 11.0333 5.38828 11.0318 5.3752 11.03C5.25713 11.0137 5.14014 10.9905 5.0252 10.9598C5.02217 10.9589 5.01904 10.958 5.01602 10.9572C4.96289 10.9427 4.91016 10.9266 4.85781 10.9092C4.84795 10.9059 4.83799 10.9026 4.82822 10.8993C4.77803 10.8819 4.72832 10.8632 4.6791 10.8431C4.67354 10.8409 4.66797 10.8388 4.6624 10.8366C4.60908 10.8144 4.55635 10.7903 4.5043 10.7649C4.49248 10.759 4.48096 10.7529 4.46924 10.7468C4.43037 10.7272 4.39199 10.7066 4.354 10.6852C3.47783 10.1895 2.88477 9.24956 2.88477 8.1731C2.88457 6.58247 4.17861 5.28843 5.76924 5.28843ZM48.077 46.6345H1.92305V45.1922H7.69229C8.22324 45.1922 8.65381 44.7617 8.65381 44.2307C8.65381 43.6998 8.22324 43.2692 7.69229 43.2692H1.92305V41.8269H48.0769V46.6345H48.077Z" fill="black"/>
<path d="M29.5261 22.8779L27.603 20.9549C27.4226 20.7746 27.1781 20.6732 26.9231 20.6732H23.0769C22.822 20.6732 22.5774 20.7746 22.3971 20.9549L20.474 22.8779C20.2938 23.0583 20.1924 23.3028 20.1924 23.5578V33.1732C20.1924 33.4282 20.2938 33.6727 20.474 33.8531L22.3971 35.7761C22.5774 35.9564 22.822 36.0578 23.0769 36.0578H26.9231C27.1781 36.0578 27.4226 35.9564 27.603 35.7761L29.5261 33.8531C29.7063 33.6727 29.8077 33.4282 29.8077 33.1732V23.5578C29.8077 23.3028 29.7063 23.0583 29.5261 22.8779ZM27.8846 32.7748L26.5247 34.1346H23.4752L22.1154 32.7748V26.4424H23.0769C23.6079 26.4424 24.0385 26.0118 24.0385 25.4808C24.0385 24.9499 23.6079 24.5193 23.0769 24.5193H22.1154V23.9561L23.4753 22.5963H26.5248L27.8846 23.9561V32.7748Z" fill="#F94020"/>
<path d="M41.8887 24.2517L40.515 22.8781C40.3347 22.6978 40.0901 22.5964 39.8352 22.5964H37.0879C36.8329 22.5964 36.5883 22.6978 36.408 22.8781L35.0345 24.2517C34.8542 24.4321 34.7528 24.6766 34.7528 24.9316V31.7996C34.7528 32.0546 34.8542 32.2992 35.0345 32.4795L36.4081 33.8532C36.5885 34.0334 36.833 34.1348 37.088 34.1348H39.8352C40.0901 34.1348 40.3348 34.0334 40.515 33.8532L41.8886 32.4795C42.0689 32.2992 42.1702 32.0546 42.1702 31.7996V24.9316C42.1703 24.6766 42.069 24.4321 41.8887 24.2517ZM40.2473 31.4014L39.4369 32.2118H37.4863L36.6759 31.4013V25.3297L37.4862 24.5194H39.4368L40.2473 25.3298V31.4014Z" fill="#F94020"/>
<path d="M14.9655 24.2517L13.592 22.8781C13.4117 22.6978 13.1671 22.5964 12.9121 22.5964H10.1649C9.90995 22.5964 9.66542 22.6978 9.48505 22.8781L8.11132 24.2517C7.93105 24.4321 7.82968 24.6766 7.82968 24.9316V31.7996C7.82968 32.0546 7.93105 32.2992 8.11132 32.4795L9.48486 33.8532C9.66513 34.0334 9.90976 34.1348 10.1647 34.1348H12.9119C13.1669 34.1348 13.4114 34.0334 13.5918 33.8532L14.9654 32.4795C15.1457 32.2992 15.2471 32.0546 15.2471 31.7996V24.9316C15.2472 24.6766 15.1459 24.4321 14.9655 24.2517ZM13.3242 31.4013L12.5138 32.2118H10.5632L9.75282 31.4014V25.3298L10.5633 24.5194H12.5139L13.3242 25.3297V31.4013Z" fill="#F94020"/>
<path d="M11.5191 44.0434C11.5077 43.9819 11.4884 43.9212 11.4643 43.8636C11.4403 43.8049 11.4105 43.7493 11.3759 43.6974C11.3414 43.6445 11.301 43.5954 11.2566 43.5511C11.2124 43.5069 11.1634 43.4666 11.1104 43.4319C11.0585 43.3974 11.0027 43.3674 10.9441 43.3434C10.8864 43.3194 10.826 43.3001 10.7644 43.2887C10.6404 43.2636 10.5125 43.2636 10.3894 43.2887C10.3279 43.3001 10.2674 43.3194 10.2087 43.3434C10.1509 43.3674 10.0952 43.3973 10.0433 43.4319C9.99023 43.4665 9.94121 43.5069 9.89697 43.5511C9.85273 43.5954 9.8124 43.6444 9.77773 43.6974C9.74218 43.7494 9.71328 43.805 9.68925 43.8636C9.66523 43.9213 9.64599 43.9819 9.63349 44.0434C9.62099 44.1049 9.61533 44.1684 9.61533 44.2309C9.61533 44.2933 9.62109 44.3569 9.63349 44.4184C9.64599 44.4799 9.66523 44.5405 9.68925 44.5981C9.71328 44.6568 9.74218 44.7125 9.77773 44.7644C9.8123 44.8173 9.85273 44.8664 9.89697 44.9106C9.94121 44.9548 9.99023 44.9953 10.0433 45.0298C10.0952 45.0644 10.1509 45.0943 10.2087 45.1183C10.2674 45.1423 10.3279 45.1616 10.3894 45.1741C10.451 45.1866 10.5144 45.1923 10.5769 45.1923C10.6393 45.1923 10.7029 45.1865 10.7644 45.1741C10.826 45.1616 10.8865 45.1423 10.9441 45.1183C11.0028 45.0943 11.0586 45.0645 11.1104 45.0298C11.1634 44.9953 11.2124 44.9548 11.2566 44.9106C11.301 44.8664 11.3413 44.8173 11.3759 44.7644C11.4104 44.7125 11.4403 44.6567 11.4643 44.5981C11.4884 44.5404 11.5076 44.4799 11.5191 44.4184C11.5316 44.3568 11.5384 44.2933 11.5384 44.2309C11.5384 44.1684 11.5316 44.1048 11.5191 44.0434Z" fill="black"/>
<path d="M26.6412 24.8011C26.597 24.7569 26.5479 24.7166 26.495 24.6819C26.4432 24.6473 26.3874 24.6175 26.3287 24.5934C26.271 24.5694 26.2105 24.5502 26.149 24.5377C26.025 24.5127 25.898 24.5127 25.774 24.5377C25.7125 24.5502 25.652 24.5694 25.5942 24.5934C25.5355 24.6175 25.4799 24.6473 25.428 24.6819C25.375 24.7165 25.326 24.7569 25.2817 24.8011C25.1029 24.98 25 25.2271 25 25.4809C25 25.7339 25.1028 25.9819 25.2817 26.1606C25.326 26.2049 25.375 26.2453 25.428 26.2799C25.48 26.3144 25.5356 26.3443 25.5942 26.3683C25.6521 26.3924 25.7125 26.4116 25.774 26.4241C25.8355 26.4366 25.899 26.4424 25.9615 26.4424C26.0239 26.4424 26.0875 26.4365 26.149 26.4241C26.2105 26.4116 26.2711 26.3924 26.3287 26.3683C26.3874 26.3443 26.4432 26.3145 26.495 26.2799C26.5479 26.2453 26.597 26.2049 26.6412 26.1606C26.8201 25.9819 26.923 25.7338 26.923 25.4809C26.923 25.227 26.8202 24.98 26.6412 24.8011Z" fill="#F94020"/>
</svg>
