<svg width="50" height="50" viewBox="0 0 50 50" fill="none" xmlns="http://www.w3.org/2000/svg">
<path d="M10.5762 17.3046H1.92381V48.076H10.5762V17.3046Z" fill="#F94020" stroke="black" stroke-miterlimit="10"/>
<path d="M41.2793 15.3809H25.9863V7.70508C25.9863 3.45703 22.5293 0 18.2812 0C14.0332 0 10.5762 3.45703 10.5762 7.70508V15.3809H0.957031C0.429688 15.3809 0 15.8105 0 16.3379V49.0332C0 49.5605 0.429688 49.9902 0.957031 49.9902H41.2793C46.084 49.9902 50 46.084 50 41.2695V24.1016C50 19.2969 46.0938 15.3809 41.2793 15.3809ZM10.5762 48.0762H1.92383V17.3047H6.72852V23.0762C6.72852 23.6035 7.1582 24.0332 7.68555 24.0332C8.21289 24.0332 8.64258 23.6035 8.64258 23.0762V17.3047H10.5664L10.5762 48.0762ZM48.0762 41.2793C48.0762 45.0293 45.0293 48.0762 41.2793 48.0762H12.5V46.123H17.3047C17.832 46.123 18.2617 45.6934 18.2617 45.166C18.2617 44.6387 17.832 44.209 17.3047 44.209H12.5V16.3477V7.70508C12.5 4.52148 15.0977 1.92383 18.2812 1.92383C21.4648 1.92383 24.0625 4.52148 24.0625 7.70508V16.3477C24.0625 16.875 24.4922 17.3047 25.0195 17.3047H41.2793C45.0293 17.3047 48.0762 20.3516 48.0762 24.1016V41.2793Z" fill="black"/>
<path d="M21.1328 44.9705C21.123 44.9119 21.1035 44.8435 21.0742 44.7947C21.0449 44.7459 21.0156 44.6775 20.9863 44.6287C20.9473 44.5798 20.9082 44.531 20.8691 44.4822C20.8203 44.4334 20.7715 44.3943 20.7227 44.365C20.6738 44.3259 20.6152 44.2966 20.5566 44.2771C20.498 44.2576 20.4395 44.238 20.3809 44.2185C20.2539 44.1892 20.127 44.1892 20.0098 44.2185C19.9512 44.2283 19.8828 44.2478 19.834 44.2771C19.7754 44.2966 19.7168 44.3357 19.668 44.365C19.6191 44.4041 19.5703 44.4431 19.5215 44.4822C19.4727 44.531 19.4336 44.5798 19.4043 44.6287C19.3652 44.6775 19.3359 44.7361 19.3164 44.7947C19.2969 44.8533 19.2773 44.9119 19.2578 44.9705C19.248 45.0291 19.2383 45.0974 19.2383 45.156C19.2383 45.2146 19.248 45.283 19.2578 45.3415C19.2676 45.4001 19.2871 45.4685 19.3164 45.5173C19.3359 45.5759 19.375 45.6345 19.4043 45.6833C19.4434 45.7322 19.4824 45.781 19.5215 45.8298C19.5703 45.8787 19.6191 45.9177 19.668 45.947C19.7168 45.9861 19.7754 46.0154 19.834 46.0349C19.8926 46.0544 19.9512 46.074 20.0098 46.0935C20.0684 46.113 20.1367 46.113 20.1953 46.113C20.2539 46.113 20.3223 46.1033 20.3809 46.0935C20.4395 46.0837 20.5078 46.0642 20.5566 46.0349C20.6152 46.0154 20.6738 45.9763 20.7227 45.947C20.7715 45.908 20.8203 45.8689 20.8691 45.8298C20.918 45.781 20.957 45.7322 20.9863 45.6833C21.0254 45.6345 21.0547 45.5759 21.0742 45.5173C21.0937 45.4587 21.1133 45.4001 21.1328 45.3415C21.1426 45.283 21.1523 45.2146 21.1523 45.156C21.1523 45.0974 21.1426 45.0388 21.1328 44.9705Z" fill="black"/>
<path d="M8.63281 25.7521C8.62305 25.6935 8.60352 25.6251 8.57422 25.5763C8.55469 25.5177 8.51563 25.4591 8.48633 25.4103C8.44727 25.3615 8.4082 25.3126 8.36914 25.2638C8.33008 25.215 8.27148 25.1759 8.22266 25.1466C8.17383 25.1075 8.11523 25.0782 8.05664 25.0587C7.99805 25.0392 7.93945 25.0197 7.88086 25.0001C7.75391 24.9708 7.62695 24.9708 7.50977 25.0001C7.45117 25.0099 7.38281 25.0294 7.33398 25.0587C7.27539 25.0782 7.2168 25.1173 7.16797 25.1466C7.11914 25.1857 7.07031 25.2247 7.02148 25.2638C6.97266 25.3029 6.93359 25.3615 6.9043 25.4103C6.86523 25.4591 6.83594 25.5177 6.81641 25.5763C6.79688 25.6349 6.77734 25.6935 6.75781 25.7521C6.74805 25.8107 6.73828 25.879 6.73828 25.9376C6.73828 25.9962 6.74805 26.0646 6.75781 26.1232C6.76758 26.1818 6.78711 26.2404 6.81641 26.2989C6.83594 26.3575 6.875 26.4161 6.9043 26.465C6.94336 26.5138 6.98242 26.5626 7.02148 26.6114C7.06055 26.6603 7.11914 26.6993 7.16797 26.7286C7.2168 26.7677 7.27539 26.797 7.33398 26.8165C7.39258 26.8361 7.45117 26.8556 7.50977 26.8751C7.56836 26.8849 7.63672 26.8946 7.69531 26.8946C7.75391 26.8946 7.82227 26.8849 7.88086 26.8751C7.93945 26.8654 8.00781 26.8458 8.05664 26.8165C8.11523 26.797 8.17383 26.7579 8.22266 26.7286C8.27148 26.6896 8.32031 26.6505 8.36914 26.6114C8.41797 26.5626 8.45703 26.5138 8.48633 26.465C8.52539 26.4161 8.55469 26.3575 8.57422 26.2989C8.59375 26.2404 8.61328 26.1818 8.63281 26.1232C8.64258 26.0646 8.65234 25.9962 8.65234 25.9376C8.65234 25.879 8.64258 25.8204 8.63281 25.7521Z" fill="black"/>
</svg>
