<svg width="50" height="50" viewBox="0 0 50 50" fill="none" xmlns="http://www.w3.org/2000/svg">
<g clip-path="url(#clip0)">
<path d="M49.7182 0.281612C49.524 0.0873749 49.2562 -0.0147731 48.9819 0.00173074C39.3364 0.569014 30.2536 4.58453 23.3431 11.3193L8.06073 9.62113C7.7702 9.5891 7.48114 9.69037 7.2746 9.89681L0.281657 16.8899C0.056072 17.1156 -0.0429511 17.4384 0.0174002 17.7518C0.0776539 18.065 0.289469 18.328 0.582828 18.4537L11.5152 23.1389L5.52646 29.1277C5.34619 29.3081 5.24482 29.5526 5.24482 29.8076C5.24482 29.8713 5.25117 29.9344 5.26347 29.996C5.30039 30.1808 5.39121 30.3522 5.52646 30.4875L6.6206 31.5816C5.26474 33.1549 4.3044 35.0322 3.82471 37.0637C3.27129 39.4083 3.38135 41.8556 4.14317 44.141L4.42002 44.9717C4.51572 45.2588 4.74101 45.4841 5.02822 45.5799L5.85878 45.8567C7.18749 46.2996 8.57098 46.5224 9.95721 46.5224C10.9552 46.5223 11.9548 46.4068 12.9362 46.1752C14.9677 45.6956 16.845 44.7351 18.4183 43.3792L19.5124 44.4733C19.7002 44.661 19.9463 44.755 20.1923 44.755C20.4383 44.755 20.6845 44.661 20.8722 44.4733L24.3688 40.9769C24.3689 40.9768 24.369 40.9767 24.3691 40.9766L26.861 38.4846L31.5464 49.417C31.6721 49.7102 31.9351 49.922 32.2483 49.9824C32.3088 49.994 32.3698 49.9998 32.4302 49.9998C32.6827 49.9998 32.928 49.9002 33.11 49.7181L40.103 42.7251C40.3095 42.5186 40.411 42.2293 40.3788 41.939L38.6807 26.6565C45.4155 19.7459 49.431 10.6631 49.9984 1.01774C50.0143 0.743818 49.9124 0.47585 49.7182 0.281612ZM2.64561 17.2455L8.3076 11.5835L21.5941 13.0599L12.9796 21.6744L2.64561 17.2455ZM6.46679 44.0324L6.09238 43.9075L5.96757 43.533C4.73896 39.8471 5.51533 35.8746 7.98348 32.9446L8.96424 33.9253C7.64598 35.3092 6.76884 37.087 6.48905 38.9585C6.41054 39.4837 6.77265 39.9732 7.29784 40.0516C7.34599 40.0588 7.39403 40.0622 7.4412 40.0622C7.90936 40.0622 8.31961 39.7197 8.391 39.2428C8.61043 37.7756 9.29461 36.3791 10.3241 35.2852L17.0552 42.0163C14.1253 44.4845 10.1527 45.2608 6.46679 44.0324ZM20.1922 42.4337L7.5661 29.8076L9.70281 27.6709L22.3289 40.2971L20.1922 42.4337ZM32.7543 47.3541L28.3254 37.0201L36.94 28.4055L38.4163 41.692L32.7543 47.3541ZM36.9584 25.6675L23.6888 38.9372L11.0626 26.3111L12.4223 24.9513L15.8219 28.3508C16.0097 28.5385 16.2558 28.6325 16.5018 28.6325C16.7479 28.6325 16.994 28.5385 17.1817 28.3508C17.5572 27.9754 17.5572 27.3666 17.1817 26.991L13.7822 23.5915L13.8788 23.495C13.879 23.4948 13.8791 23.4947 13.8793 23.4945L24.3345 13.0393C30.6957 6.67895 39.0621 2.78473 47.9981 2.00163C47.2149 10.9387 43.32 19.306 36.9584 25.6675Z" fill="black"/>
<path d="M8.5063 41.9303C8.50552 41.927 8.50434 41.9221 8.50346 41.9182C8.3852 41.4038 7.87407 41.0806 7.35777 41.1952C6.83941 41.3104 6.51246 41.824 6.62779 42.3423C6.62847 42.3454 6.62955 42.35 6.63043 42.3537C6.73238 42.7985 7.12798 43.1005 7.56675 43.1005C7.63579 43.1005 7.70601 43.093 7.77622 43.0775C8.29468 42.9624 8.62153 42.4487 8.5063 41.9303Z" fill="black"/>
<path d="M19.4845 29.5231C19.472 29.4615 19.4537 29.401 19.4297 29.3433C19.4057 29.2846 19.3759 29.2288 19.3412 29.177C19.3057 29.124 19.2662 29.075 19.221 29.0308C19.1768 28.9865 19.1278 28.9462 19.0748 28.9115C19.0229 28.877 18.9671 28.8471 18.9094 28.823C18.8507 28.799 18.7902 28.7808 18.7296 28.7683C18.6056 28.7433 18.4777 28.7433 18.3536 28.7683C18.2921 28.7808 18.2316 28.799 18.1739 28.823C18.1152 28.8471 18.0594 28.8769 18.0075 28.9115C17.9546 28.9461 17.9056 28.9865 17.8614 29.0308C17.8171 29.075 17.7768 29.124 17.7421 29.177C17.7075 29.2289 17.6777 29.2847 17.6536 29.3433C17.6296 29.401 17.6114 29.4614 17.5989 29.523C17.5864 29.5846 17.5796 29.648 17.5796 29.7105C17.5796 29.773 17.5864 29.8365 17.5989 29.899C17.6114 29.9596 17.6296 30.0202 17.6536 30.0787C17.6777 30.1365 17.7075 30.1923 17.7421 30.2442C17.7767 30.2972 17.8171 30.3462 17.8614 30.3904C18.0411 30.5692 18.2883 30.6723 18.5411 30.6723C18.6036 30.6723 18.6671 30.6664 18.7296 30.654C18.7902 30.6415 18.8508 30.6232 18.9094 30.5992C18.9671 30.5752 19.0229 30.5454 19.0748 30.5107C19.1278 30.4752 19.1768 30.4348 19.221 30.3905C19.2662 30.3463 19.3056 30.2973 19.3412 30.2443C19.3758 30.1924 19.4057 30.1366 19.4297 30.0788C19.4537 30.0202 19.472 29.9597 19.4845 29.8991C19.497 29.8366 19.5028 29.773 19.5028 29.7106C19.5028 29.6481 19.497 29.5846 19.4845 29.5231Z" fill="black"/>
<path d="M37.579 12.0332C36.6709 11.1252 35.4635 10.625 34.1794 10.625C32.8952 10.625 31.6879 11.1251 30.7799 12.0332C28.9055 13.9077 28.9055 16.9578 30.7799 18.8323C31.688 19.7403 32.8953 20.2405 34.1794 20.2405C35.4636 20.2405 36.6709 19.7404 37.579 18.8323C39.4534 16.9579 39.4534 13.9078 37.579 12.0332ZM36.2192 17.4724C35.6744 18.0174 34.95 18.3174 34.1795 18.3174C33.409 18.3174 32.6845 18.0174 32.1397 17.4724C31.015 16.3478 31.015 14.5178 32.1397 13.3931C32.6845 12.8481 33.409 12.5481 34.1795 12.5481C34.9501 12.5481 35.6744 12.8481 36.2192 13.3931C37.3439 14.5177 37.3439 16.3477 36.2192 17.4724Z" fill="#F94020"/>
</g>
<defs>
<clipPath id="clip0">
<rect width="50" height="50" fill="white"/>
</clipPath>
</defs>
</svg>
